<svg xmlns="http://www.w3.org/2000/svg" xmlns:xlink="http://www.w3.org/1999/xlink" width="433.52" height="201.28" viewBox="0 0 433.52 201.28">
  <defs>
    <filter id="Path_1458" x="0" y="0" width="433.52" height="201.28" filterUnits="userSpaceOnUse">
      <feOffset dy="3" input="SourceAlpha"/>
      <feGaussianBlur stdDeviation="24" result="blur"/>
      <feFlood flood-opacity="0.969"/>
      <feComposite operator="in" in2="blur"/>
      <feComposite in="SourceGraphic"/>
    </filter>
  </defs>
  <g transform="matrix(1, 0, 0, 1, 0, 0)" filter="url(#Path_1458)">
    <path id="Path_1458-2" data-name="Path 1458" d="M20.4-20.88v8c0,4-1.76,5.44-4.56,5.44s-4.56-1.44-4.56-5.44V-43.12c0-4,1.76-5.52,4.56-5.52s4.56,1.52,4.56,5.52v6h8.32v-5.44c0-8.96-4.48-14.08-13.12-14.08S2.48-51.52,2.48-42.56v29.12C2.48-4.48,6.96.64,15.6.64S28.72-4.48,28.72-13.44v-7.44ZM46.16-43.12c0-4,1.76-5.52,4.56-5.52s4.56,1.52,4.56,5.52v30.24c0,4-1.76,5.52-4.56,5.52s-4.56-1.52-4.56-5.52Zm-8.8,29.68C37.36-4.48,42.08.64,50.72.64S64.08-4.48,64.08-13.44V-42.56c0-8.96-4.72-14.08-13.36-14.08S37.36-51.52,37.36-42.56ZM92.56,0h9.04V-56H93.76v33.52H93.6L84.72-56H73.68V0H81.6V-40.56h.16Zm32.56-23.2h4v10.32c0,4-1.76,5.44-4.56,5.44S120-8.88,120-12.88V-43.12c0-4,1.76-5.52,4.56-5.52s4.56,1.52,4.56,5.52v6h8.32v-5.44c0-8.96-4.48-14.08-13.12-14.08S111.2-51.52,111.2-42.56v29.12c0,8.96,4.48,14.08,13.12,14.08s13.12-5.12,13.12-14.08V-31.2H125.12ZM174.48,0c-.88-2.08-.96-4.08-.96-6.8v-8.64c0-5.84-1.44-10-5.84-11.84v-.16c3.92-1.84,5.76-5.52,5.76-11.28v-4.4c0-8.64-3.92-12.88-13.04-12.88H147.12V0h8.8V-22.8h3.04c4,0,5.76,1.92,5.76,7.12v8.8c0,4.56.32,5.44.8,6.88ZM160.16-48c3.12,0,4.48,1.76,4.48,5.76v5.52c0,4.48-2,5.92-5.28,5.92h-3.44V-48Zm42.64-8H189.92L180.96,0h8.08l1.52-10.16h10.8L202.88,0h8.88Zm-6.96,9.92H196l4.16,28.32h-8.48ZM214.24-48h9.2V0h8.8V-48h9.2v-8h-27.2Zm33.92,5.44c0,6.4,2.32,11.04,9.68,17.52,5.76,5.04,7.52,8.08,7.52,12.16,0,4-1.76,5.44-4.56,5.44s-4.56-1.44-4.56-5.44v-4h-8.32v3.44c0,8.96,4.48,14.08,13.12,14.08s13.12-5.12,13.12-14.08c0-6.4-2.32-11.04-9.68-17.52-5.76-5.04-7.52-8.08-7.52-12.16,0-4,1.6-5.52,4.4-5.52s4.4,1.52,4.4,5.52v2.32h8.32v-1.76c0-8.96-4.4-14.08-12.96-14.08S248.16-51.52,248.16-42.56ZM290.88-12.4,292-32.64V-56h-8.8v23.36l1.12,20.24Zm-7.52,3.92V0h8.48V-8.48Z" transform="translate(69.52 125.64)" fill="#dfdcec"/>
  </g>
</svg>
