<svg xmlns="http://www.w3.org/2000/svg" width="433.52" height="201.28"><defs><filter id="a" x="0" y="0" width="433.52" height="201.28" filterUnits="userSpaceOnUse"><feOffset dy="3"/><feGaussianBlur stdDeviation="24" result="blur"/><feFlood flood-opacity=".969"/><feComposite operator="in" in2="blur"/><feComposite in="SourceGraphic"/></filter></defs><g filter="url(#a)"><path data-name="Path 1458" d="M89.92 104.76v8c0 4-1.76 5.44-4.56 5.44s-4.56-1.44-4.56-5.44V82.52c0-4 1.76-5.52 4.56-5.52s4.56 1.52 4.56 5.52v6h8.32v-5.44c0-8.96-4.48-14.08-13.12-14.08S72 74.12 72 83.08v29.12c0 8.96 4.48 14.08 13.12 14.08s13.12-5.12 13.12-14.08v-7.44zm25.76-22.24c0-4 1.76-5.52 4.56-5.52s4.56 1.52 4.56 5.52v30.24c0 4-1.76 5.52-4.56 5.52s-4.56-1.52-4.56-5.52zm-8.8 29.68c0 8.96 4.72 14.08 13.36 14.08s13.36-5.12 13.36-14.08V83.08c0-8.96-4.72-14.08-13.36-14.08s-13.36 5.12-13.36 14.08zm55.2 13.44h9.04v-56h-7.84v33.52h-.16l-8.88-33.52H143.2v56h7.92V85.08h.16zm32.56-23.2h4v10.32c0 4-1.76 5.44-4.56 5.44s-4.56-1.44-4.56-5.44V82.52c0-4 1.76-5.52 4.56-5.52s4.56 1.52 4.56 5.52v6h8.32v-5.44c0-8.96-4.48-14.08-13.12-14.08s-13.12 5.12-13.12 14.08v29.12c0 8.96 4.48 14.08 13.12 14.08s13.12-5.12 13.12-14.08V94.44h-12.32zm49.36 23.2c-.88-2.08-.96-4.08-.96-6.8v-8.64c0-5.84-1.44-10-5.84-11.84v-.16c3.92-1.84 5.76-5.52 5.76-11.28v-4.4c0-8.64-3.92-12.88-13.04-12.88h-13.28v56h8.8v-22.8h3.04c4 0 5.76 1.92 5.76 7.12v8.8c0 4.56.32 5.44.8 6.88zm-14.32-48c3.12 0 4.48 1.76 4.48 5.76v5.52c0 4.48-2 5.92-5.28 5.92h-3.44v-17.2zm42.64-8h-12.88l-8.96 56h8.08l1.52-10.16h10.8l1.52 10.16h8.88zm-6.96 9.92h.16l4.16 28.32h-8.48zm18.4-1.92h9.2v48h8.8v-48h9.2v-8h-27.2zm33.92 5.44c0 6.4 2.32 11.04 9.68 17.52 5.76 5.04 7.52 8.08 7.52 12.16 0 4-1.76 5.44-4.56 5.44s-4.56-1.44-4.56-5.44v-4h-8.32v3.44c0 8.96 4.48 14.08 13.12 14.08s13.12-5.12 13.12-14.08c0-6.4-2.32-11.04-9.68-17.52-5.76-5.04-7.52-8.08-7.52-12.16 0-4 1.6-5.52 4.4-5.52s4.4 1.52 4.4 5.52v2.32h8.32v-1.76c0-8.96-4.4-14.08-12.96-14.08s-12.96 5.12-12.96 14.08zm42.72 30.16L361.52 93V69.64h-8.8V93l1.12 20.24zm-7.52 3.92v8.48h8.48v-8.48z" fill="#dfdcec"/></g></svg>