<svg xmlns="http://www.w3.org/2000/svg" width="1875.227" height="928.667" viewBox="0 0 1875.227 928.667">
  <g id="Group_680" data-name="Group 680" transform="translate(541.604 -5686.402) rotate(1)" opacity="0.15">
    <g id="Path_558" data-name="Path 558" transform="translate(0.839 6004.045) rotate(-8)" fill="none">
      <path d="M465.731.336C725.089,5.8,937.086,76.56,939.237,158.372s-206.356,143.7-465.714,138.234S2.168,220.382.017,138.57,206.372-5.132,465.731.336Z" stroke="none"/>
      <path d="M 433.9522705078125 2.99993896484375 C 385.7791137695312 2.99993896484375 338.7533569335938 5.34100341796875 294.1810913085938 9.958160400390625 C 250.9143676757812 14.4400634765625 210.5542602539062 20.99899291992188 174.2216796875 29.45263671875 C 138.257080078125 37.82077026367188 106.9207763671875 47.88381958007812 81.08331298828125 59.36216735839844 C 55.06060791015625 70.92288208007812 35.1468505859375 83.68299865722656 21.89495849609375 97.28793334960938 C 15.49041748046875 103.8632354736328 10.64813232421875 110.6640625 7.50299072265625 117.5013580322266 C 5.92730712890625 120.9264068603516 4.750732421875 124.4230041503906 4.00567626953125 127.8940582275391 C 3.25555419921875 131.3886413574219 2.92242431640625 134.9539337158203 3.01544189453125 138.4909973144531 C 3.1402587890625 143.2362976074219 4.03497314453125 148.0459442138672 5.67462158203125 152.7861785888672 C 7.306396484375 157.5038146972656 9.71710205078125 162.2733459472656 12.839599609375 166.9625244140625 C 19.07110595703125 176.3206481933594 28.2901611328125 185.6228790283203 40.2406005859375 194.6111145019531 C 52.0849609375 203.5194702148438 66.70672607421875 212.1900634765625 83.6998291015625 220.3820495605469 C 100.591552734375 228.5252380371094 119.9600219726562 236.2599334716797 141.2669677734375 243.3712310791016 C 162.6060180664062 250.4933471679688 186.0589599609375 257.046630859375 210.9744873046875 262.84912109375 C 236.146728515625 268.7113647460938 263.03076171875 273.8579406738281 290.8799438476562 278.1456909179688 C 319.2537841796875 282.5142822265625 348.9207763671875 286.0355834960938 379.0567626953125 288.61181640625 C 409.9834594726562 291.2557067871094 441.7879333496094 292.9361877441406 473.5865173339844 293.6066589355469 C 484.1470947265625 293.8292236328125 494.8178100585938 293.9421691894531 505.3021545410156 293.9421691894531 C 553.475341796875 293.9421691894531 600.5010986328125 291.6011047363281 645.0732421875 286.9839477539062 C 688.33984375 282.5020446777344 728.699951171875 275.943115234375 765.0324096679688 267.4894714355469 C 800.9969482421875 259.121337890625 832.333251953125 249.0584106445312 858.170654296875 237.5799407958984 C 884.1932373046875 226.0192260742188 904.1069946289062 213.2592315673828 917.35888671875 199.654296875 C 923.763427734375 193.0789947509766 928.605712890625 186.2781677246094 931.7508544921875 179.4408874511719 C 933.3265380859375 176.0158233642578 934.5031127929688 172.5192260742188 935.2481689453125 169.0481719970703 C 935.998291015625 165.5535888671875 936.3314819335938 161.9882965087891 936.2384033203125 158.4512329101562 C 936.1135864257812 153.7059326171875 935.2188720703125 148.8962860107422 933.5792236328125 144.1560516357422 C 931.9474487304688 139.4384155273438 929.5367431640625 134.6688842773438 926.414306640625 129.9797058105469 C 920.1826171875 120.62158203125 910.9635620117188 111.3192291259766 899.0131225585938 102.3311157226562 C 887.1688842773438 93.42276000976562 872.547119140625 84.75216674804688 855.5540161132812 76.5601806640625 C 838.6621704101562 68.4169921875 819.2938232421875 60.68229675292969 797.9867553710938 53.57087707519531 C 776.6478271484375 46.44888305664062 753.1947631835938 39.89559936523438 728.2792358398438 34.09298706054688 C 703.1071166992188 28.23077392578125 676.2230224609375 23.08428955078125 648.3739013671875 18.79641723632812 C 620 14.42794799804688 590.3331298828125 10.90652465820312 560.1971435546875 8.330291748046875 C 529.2703857421875 5.6864013671875 497.4659118652344 4.005950927734375 465.6673278808594 3.335479736328125 C 455.1067504882812 3.112884521484375 444.4361572265625 2.99993896484375 433.9522705078125 2.99993896484375 M 433.9522094726562 -3.0517578125e-05 C 444.4536743164062 -3.0517578125e-05 455.0453796386719 0.110870361328125 465.7306213378906 0.336181640625 C 725.08935546875 5.804534912109375 937.08544921875 76.559814453125 939.2373657226562 158.3724060058594 C 941.300537109375 236.8144226074219 749.6981201171875 296.942138671875 505.3022155761719 296.942138671875 C 494.8007507324219 296.942138671875 484.2084655761719 296.8312377929688 473.5232238769531 296.6059265136719 C 214.1644897460938 291.1375732421875 2.16827392578125 220.3824157714844 0.01654052734375 138.56982421875 C -2.04669189453125 60.12770080566406 189.5563354492188 -3.0517578125e-05 433.9522094726562 -3.0517578125e-05 Z" stroke="none" fill="#fff"/>
    </g>
    <g id="Path_559" data-name="Path 559" transform="matrix(0.985, -0.174, 0.174, 0.985, -136.445, 6017.295)" fill="none">
      <path d="M602.362.421C937.9,7.5,1212.236,101.833,1215.111,211.13s-266.8,192.164-602.339,185.09S2.9,294.808.023,185.511,266.824-6.653,602.362.421Z" stroke="none"/>
      <path d="M 562.5357055664062 3 C 500.5164794921875 3 439.9398803710938 6.0946044921875 382.4884643554688 12.19784545898438 C 326.7171020507812 18.12261962890625 274.62451171875 26.79678344726562 227.6575927734375 37.97940063476562 C 181.1634521484375 49.04937744140625 140.5416259765625 62.3717041015625 106.9205322265625 77.57598876953125 C 73.0177001953125 92.9078369140625 46.8892822265625 109.858154296875 29.2607421875 127.9564514160156 C 20.3824462890625 137.0713806152344 13.6634521484375 146.5193939208984 9.2901611328125 156.0380096435547 C 7.09130859375 160.824462890625 5.4483642578125 165.7146148681641 4.4072265625 170.5726165771484 C 3.357421875 175.4716949462891 2.8912353515625 180.4710845947266 3.021728515625 185.4320068359375 C 3.19140625 191.8840026855469 4.373779296875 198.4192352294922 6.5355224609375 204.8558502197266 C 8.6802978515625 211.2418518066406 11.8427734375 217.6918487548828 15.9349365234375 224.0269317626953 C 24.067138671875 236.6164703369141 36.0771484375 249.1159973144531 51.631103515625 261.1781616210938 C 67.0093994140625 273.1041564941406 85.9837646484375 284.7052307128906 108.0269775390625 295.6592407226562 C 129.920654296875 306.5389404296875 155.018798828125 316.8687744140625 182.62451171875 326.3615417480469 C 210.2623291015625 335.8655395507812 240.6349487304688 344.6067810058594 272.8988037109375 352.3423156738281 C 305.4900512695312 360.1563110351562 340.2955932617188 367.0118408203125 376.3483276367188 372.7186279296875 C 413.077880859375 378.5323181152344 451.4795532226562 383.2124633789062 490.4866333007812 386.6289367675781 C 530.5161743164062 390.1349182128906 571.68017578125 392.3526306152344 612.8352661132812 393.2203063964844 C 626.0680541992188 393.4993896484375 639.446044921875 393.6409301757812 652.5980224609375 393.6409301757812 C 714.6172485351562 393.6409301757812 775.19384765625 390.5463256835938 832.645263671875 384.4430847167969 C 888.4166259765625 378.518310546875 940.50927734375 369.8441467285156 987.476318359375 358.6615295410156 C 1033.970458984375 347.5914001464844 1074.59228515625 334.2690734863281 1108.21337890625 319.0647583007812 C 1142.1162109375 303.73291015625 1168.24462890625 286.782470703125 1185.873168945312 268.684326171875 C 1194.75146484375 259.5693969726562 1201.470458984375 250.1213836669922 1205.84375 240.6027679443359 C 1208.042846679688 235.8164672851562 1209.685546875 230.9263153076172 1210.726684570312 226.0683135986328 C 1211.776489257812 221.1692352294922 1212.24267578125 216.1698455810547 1212.112182617188 211.2089233398438 C 1211.942504882812 204.7569274902344 1210.760131835938 198.2216949462891 1208.598388671875 191.7849273681641 C 1206.45361328125 185.3990783691406 1203.291137695312 178.9490814208984 1199.198974609375 172.6139984130859 C 1191.066650390625 160.0243072509766 1179.056640625 147.5249328613281 1163.502685546875 135.4627685546875 C 1148.124389648438 123.5367736816406 1129.14990234375 111.935546875 1107.106689453125 100.9815368652344 C 1085.213134765625 90.10183715820312 1060.11474609375 79.77200317382812 1032.50927734375 70.27923583984375 C 1004.871398925781 60.77523803710938 974.4986572265625 52.03414916992188 942.2348022460938 44.2984619140625 C 909.6435546875 36.48446655273438 874.8381958007812 29.62893676757812 838.7852783203125 23.92230224609375 C 802.055908203125 18.10845947265625 763.6541748046875 13.428466796875 724.64697265625 10.01199340820312 C 684.6175537109375 6.506011962890625 643.4535522460938 4.288299560546875 602.2985229492188 3.420623779296875 C 589.0657348632812 3.14154052734375 575.687744140625 3 562.5357055664062 3 M 562.5357055664062 -6.103515625e-05 C 575.706298828125 -6.103515625e-05 588.9680786132812 0.13885498046875 602.3616943359375 0.421234130859375 C 937.89892578125 7.495697021484375 1212.236206054688 101.8332214355469 1215.111083984375 211.1300048828125 C 1217.87109375 316.0638427734375 969.377197265625 396.6409912109375 652.5979614257812 396.6409912109375 C 639.4273681640625 396.6409912109375 626.1656494140625 396.5020751953125 612.7720336914062 396.2196960449219 C 277.234619140625 389.1450805664062 2.8974609375 294.8075561523438 0.0228271484375 185.5109252929688 C -2.7371826171875 80.57696533203125 245.7562255859375 -6.103515625e-05 562.5357055664062 -6.103515625e-05 Z" stroke="none" fill="#fff"/>
    </g>
    <g id="Path_560" data-name="Path 560" transform="translate(-272.895 6025.263) rotate(-11)" fill="none">
      <path d="M740.51.516c412.505,8.7,749.783,125.1,753.331,260s-327.977,237.2-740.482,228.5S3.576,363.911.028,229.016,328.005-8.181,740.51.516Z" stroke="none"/>
      <path d="M 691.7384033203125 2.999847412109375 C 615.5228271484375 2.999847412109375 541.0728149414062 6.815460205078125 470.4566040039062 14.34066772460938 C 401.900390625 21.64645385742188 337.8538818359375 32.34304809570312 280.0958251953125 46.13385009765625 C 222.9072265625 59.78866577148438 172.9210205078125 76.22445678710938 131.52587890625 94.98486328125 C 110.8448486328125 104.3574523925781 92.2774658203125 114.35205078125 76.339599609375 124.6910400390625 C 60.2666015625 135.1174621582031 46.6004638671875 146.0678405761719 35.72021484375 157.2380676269531 C 30.2164306640625 162.8884582519531 25.335205078125 168.6912536621094 21.2120361328125 174.4852600097656 C 17.06787109375 180.3088684082031 13.583251953125 186.2730407714844 10.8548583984375 192.2122497558594 C 8.10986328125 198.1878662109375 6.058837890625 204.2944641113281 4.7586669921875 210.3628540039062 C 3.4466552734375 216.4864501953125 2.864013671875 222.73583984375 3.0272216796875 228.9374389648438 C 3.2384033203125 236.9714508056641 4.705078125 245.1070556640625 7.38623046875 253.1184539794922 C 10.04248046875 261.0556640625 13.9566650390625 269.0692749023438 19.020263671875 276.9370727539062 C 24.0472412109375 284.7484741210938 30.32666015625 292.6022338867188 37.68408203125 300.2804565429688 C 44.990234375 307.9052734375 53.5303955078125 315.5352478027344 63.0672607421875 322.9588623046875 C 82.0103759765625 337.7042541503906 105.37744140625 352.0448608398438 132.51904296875 365.5824584960938 C 159.46240234375 379.021240234375 190.346435546875 391.7792358398438 224.3134765625 403.5022583007812 C 258.3126220703125 415.2362670898438 295.6744384765625 426.0278625488281 335.361083984375 435.5768432617188 C 375.4462890625 445.2218627929688 418.2540283203125 453.6830444335938 462.5948486328125 460.7252502441406 C 507.765625 467.8992614746094 554.992431640625 473.6736450195312 602.9632568359375 477.8876647949219 C 652.1900024414062 482.2120666503906 702.8116455078125 484.9456481933594 753.4220581054688 486.0126647949219 C 769.63623046875 486.3546447753906 786.0244140625 486.5280456542969 802.1318359375 486.5280456542969 C 878.347412109375 486.5280456542969 952.7972412109375 482.7124633789062 1023.413452148438 475.187255859375 C 1091.969482421875 467.8814392089844 1156.015991210938 457.1848449707031 1213.773803710938 443.39404296875 C 1270.96240234375 429.7394409179688 1320.948486328125 413.303466796875 1362.343627929688 394.5430603027344 C 1383.024658203125 385.1704711914062 1401.591796875 375.1758422851562 1417.52978515625 364.8368530273438 C 1433.602661132812 354.4104614257812 1447.268798828125 343.4600524902344 1458.149047851562 332.2900390625 C 1463.652587890625 326.6396484375 1468.533813476562 320.8368530273438 1472.656982421875 315.0428466796875 C 1476.80126953125 309.21923828125 1480.285888671875 303.2550659179688 1483.014282226562 297.3158569335938 C 1485.75927734375 291.3402709960938 1487.810180664062 285.233642578125 1489.110473632812 279.1652526855469 C 1490.422485351562 273.0416564941406 1491.005004882812 266.792236328125 1490.841796875 260.5906372070312 C 1490.630615234375 252.5566558837891 1489.1640625 244.4210510253906 1486.482788085938 236.4096527099609 C 1483.82666015625 228.4724426269531 1479.912475585938 220.4586486816406 1474.848999023438 212.591064453125 C 1469.82177734375 204.7796630859375 1463.54248046875 196.9258422851562 1456.18505859375 189.2476501464844 C 1448.878784179688 181.6228637695312 1440.3388671875 173.9928588867188 1430.802001953125 166.5692443847656 C 1411.85888671875 151.8238525390625 1388.491821289062 137.4832458496094 1361.350219726562 123.9456481933594 C 1334.406860351562 110.5068664550781 1303.522827148438 97.74884033203125 1269.555786132812 86.02584838867188 C 1235.556640625 74.29165649414062 1198.19482421875 63.500244140625 1158.50830078125 53.95126342773438 C 1118.423095703125 44.30624389648438 1075.615234375 35.84506225585938 1031.2744140625 28.8028564453125 C 986.1036376953125 21.628662109375 938.8768310546875 15.85446166992188 890.906005859375 11.64044189453125 C 841.6792602539062 7.3160400390625 791.0576171875 4.582244873046875 740.4472045898438 3.5152587890625 C 724.2330322265625 3.173248291015625 707.8450317382812 2.999847412109375 691.7384033203125 2.999847412109375 M 691.7383422851562 -6.103515625e-05 C 707.8814697265625 -6.103515625e-05 724.0948486328125 0.16973876953125 740.5104370117188 0.515838623046875 C 1153.015380859375 9.2132568359375 1490.293090820312 125.6174621582031 1493.8408203125 260.5118408203125 C 1497.247802734375 390.0381469726562 1191.64599609375 489.5279846191406 802.1318359375 489.5279846191406 C 785.98876953125 489.5279846191406 769.7744140625 489.358154296875 753.3588256835938 489.0120544433594 C 340.8538818359375 480.3148498535156 3.576171875 363.91064453125 0.0281982421875 229.0162658691406 C -3.3785400390625 99.48977661132812 302.2239990234375 -6.103515625e-05 691.7383422851562 -6.103515625e-05 Z" stroke="none" fill="#fff"/>
    </g>
    <g id="Path_561" data-name="Path 561" transform="matrix(0.978, -0.208, 0.208, 0.978, -436.305, 6037.29)" fill="none">
      <path d="M889.274.61c495.442,10.446,900.587,152.348,904.916,316.947s-393.8,289.565-889.238,279.119S4.364,444.328.035,279.729,393.831-9.836,889.274.61Z" stroke="none"/>
      <path d="M 831.6054077148438 2.99993896484375 C 740.2919921875 2.99993896484375 651.071533203125 7.62994384765625 566.4224853515625 16.76104736328125 C 484.2401123046875 25.62628173828125 407.4156494140625 38.6092529296875 338.0826416015625 55.34967041015625 C 303.962890625 63.587890625 271.55517578125 72.7830810546875 241.759521484375 82.68035888671875 C 211.956298828125 92.58013916015625 184.278564453125 103.343994140625 159.49560546875 114.673095703125 C 134.583740234375 126.0610656738281 112.1854248046875 138.2080993652344 92.9224853515625 150.7771911621094 C 83.242919921875 157.0931091308594 74.1949462890625 163.6226501464844 66.0303955078125 170.1844482421875 C 57.8231201171875 176.7803649902344 50.2994384765625 183.5765075683594 43.6683349609375 190.3844604492188 C 36.8387451171875 197.3960571289062 30.7796630859375 204.6005859375 25.659912109375 211.798095703125 C 20.5087890625 219.0396728515625 16.176513671875 226.45947265625 12.7830810546875 233.8515014648438 C 9.3653564453125 241.2965087890625 6.811279296875 248.9076538085938 5.1917724609375 256.4735412597656 C 3.5562744140625 264.1133117675781 2.830322265625 271.9110412597656 3.0338134765625 279.650146484375 C 3.2935791015625 289.5233154296875 5.071044921875 299.5187683105469 8.3170166015625 309.3590087890625 C 11.529052734375 319.0969543457031 16.258544921875 328.9253845214844 22.373779296875 338.571044921875 C 28.4381103515625 348.1358032226562 36.0096435546875 357.7499084472656 44.8785400390625 367.1460571289062 C 53.6781005859375 376.468994140625 63.9615478515625 385.7965087890625 75.443115234375 394.8694458007812 C 86.843505859375 403.8785400390625 99.6915283203125 412.8469543457031 113.6295166015625 421.525390625 C 127.4879150390625 430.1542358398438 142.745849609375 438.6967163085938 158.9794921875 446.9158325195312 C 191.3690185546875 463.314453125 228.491943359375 478.8794555664062 269.3173828125 493.1785583496094 C 310.1751708984375 507.489013671875 355.071533203125 520.647216796875 402.75927734375 532.2874145507812 C 450.922607421875 544.0435791015625 502.3555908203125 554.3535766601562 555.6290283203125 562.9312744140625 C 609.897705078125 571.6690063476562 666.6351318359375 578.6973876953125 724.265380859375 583.8212890625 C 783.4033203125 589.0789794921875 844.21630859375 592.3951416015625 905.0144653320312 593.6769409179688 C 924.193359375 594.081298828125 943.574462890625 594.2862548828125 962.6194458007812 594.2862548828125 C 1053.932861328125 594.2862548828125 1143.1533203125 589.65625 1227.802490234375 580.525146484375 C 1309.984741210938 571.659912109375 1386.809204101562 558.6769409179688 1456.142211914062 541.9365234375 C 1490.261962890625 533.6983032226562 1522.669677734375 524.5028686523438 1552.46533203125 514.6058349609375 C 1582.2685546875 504.7060546875 1609.9462890625 493.9421997070312 1634.729248046875 482.6130981445312 C 1659.64111328125 471.2251586914062 1682.039428710938 459.0780944824219 1701.302490234375 446.5090026855469 C 1710.98193359375 440.193115234375 1720.029663085938 433.66357421875 1728.194458007812 427.1017456054688 C 1736.401733398438 420.5058288574219 1743.925415039062 413.70947265625 1750.556518554688 406.9017333984375 C 1757.386108398438 399.89013671875 1763.444946289062 392.6853637695312 1768.564697265625 385.4880981445312 C 1773.7158203125 378.2465209960938 1778.048095703125 370.8267211914062 1781.441528320312 363.4346923828125 C 1784.859252929688 355.9896850585938 1787.413330078125 348.3785400390625 1789.032836914062 340.8126525878906 C 1790.668334960938 333.1728820800781 1791.394287109375 325.3751525878906 1791.190795898438 317.6360473632812 C 1790.931030273438 307.7628784179688 1789.153564453125 297.7674255371094 1785.90771484375 287.9271850585938 C 1782.695556640625 278.1892395019531 1777.966064453125 268.3608093261719 1771.850830078125 258.7151489257812 C 1765.786743164062 249.1503601074219 1758.215209960938 239.5362854003906 1749.346313476562 230.14013671875 C 1740.546508789062 220.8171997070312 1730.263061523438 211.4896850585938 1718.78173828125 202.416748046875 C 1707.381103515625 193.4074096679688 1694.533325195312 184.4392395019531 1680.59521484375 175.7608337402344 C 1666.736938476562 167.1319580078125 1651.47900390625 158.5894470214844 1635.2451171875 150.370361328125 C 1602.855590820312 133.9717407226562 1565.732666015625 118.406494140625 1524.9072265625 104.107421875 C 1484.049682617188 89.79696655273438 1439.1533203125 76.63897705078125 1391.46533203125 64.998779296875 C 1343.302001953125 53.242431640625 1291.869262695312 42.93243408203125 1238.595581054688 34.35491943359375 C 1184.326904296875 25.6171875 1127.589721679688 18.58880615234375 1069.95947265625 13.46490478515625 C 1010.8212890625 8.20697021484375 950.008544921875 4.89105224609375 889.2103881835938 3.6092529296875 C 870.031494140625 3.20489501953125 850.650390625 2.99993896484375 831.6054077148438 2.99993896484375 M 831.6053466796875 -6.103515625e-05 C 850.672607421875 -6.103515625e-05 869.89013671875 0.20123291015625 889.2735595703125 0.60992431640625 C 1384.715576171875 11.05584716796875 1789.860595703125 152.9580993652344 1794.189697265625 317.5571899414062 C 1798.349853515625 475.7165832519531 1430.912475585938 597.2862548828125 962.6194458007812 597.2862548828125 C 943.5521850585938 597.2862548828125 924.334716796875 597.0849609375 904.9512939453125 596.67626953125 C 409.509033203125 586.2301635742188 4.3642578125 444.3280944824219 0.034912109375 279.72900390625 C -4.125 121.5696105957031 363.3121337890625 -6.103515625e-05 831.6053466796875 -6.103515625e-05 Z" stroke="none" fill="#fff"/>
    </g>
    <g id="Path_562" data-name="Path 562" transform="translate(251.245 6042.745) rotate(-6)" fill="none">
      <path d="M220.755.323C344.419,3.665,446.093,32.05,447.85,63.722s-97.068,54.639-220.732,51.3S1.78,83.292.023,51.62,97.091-3.019,220.755.323Z" stroke="none"/>
      <path d="M 197.0029754638672 3 C 174.0003356933594 3 151.6956176757812 3.92523193359375 130.70849609375 5.75 C 110.3036804199219 7.524116516113281 91.47055053710938 10.11770629882812 74.73226928710938 13.45870208740234 C 58.1500244140625 16.76858520507812 43.97833251953125 20.73964691162109 32.61083984375 25.26158142089844 C 26.96478271484375 27.50758361816406 22.01873779296875 29.89399719238281 17.91015625 32.35452270507812 C 13.8370361328125 34.7938232421875 10.539306640625 37.33329010009766 8.108734130859375 39.9024658203125 C 6.28326416015625 41.83199310302734 4.929718017578125 43.79882049560547 4.085601806640625 45.748291015625 C 3.27178955078125 47.62793731689453 2.9127197265625 49.54752349853516 3.01849365234375 51.45376205444336 C 3.197723388671875 54.68487930297852 4.71044921875 58.02311325073242 7.514617919921875 61.37582015991211 C 10.45132446289062 64.88699340820312 14.7945556640625 68.41411590576172 20.42373657226562 71.85911560058594 C 26.078857421875 75.31999206542969 33.052734375 78.70823669433594 41.151611328125 81.92970275878906 C 49.23178100585938 85.14370727539062 58.48773193359375 88.21358489990234 68.66220092773438 91.05405426025391 C 78.86520385742188 93.9024658203125 90.07012939453125 96.54187774658203 101.9657287597656 98.89905548095703 C 113.9905090332031 101.2817611694336 126.8244323730469 103.3963470458984 140.1109008789062 105.1839370727539 C 167.776611328125 108.9062347412109 197.0773162841797 111.2063522338867 227.1992034912109 112.0204086303711 C 235.1036224365234 112.2339935302734 243.0677337646484 112.3423461914062 250.8703155517578 112.3423461914062 C 273.8729858398438 112.3423461914062 296.1776733398438 111.4171142578125 317.1647338867188 109.5923461914062 C 337.5696105957031 107.818229675293 356.4027404785156 105.2246398925781 373.1409606933594 101.8836441040039 C 389.7232055664062 98.57376098632812 403.8948974609375 94.60270690917969 415.2623901367188 90.08076477050781 C 420.908447265625 87.83476257324219 425.8544921875 85.44834899902344 429.9630737304688 82.98782348632812 C 434.0361938476562 80.54852294921875 437.3338623046875 78.00905609130859 439.7644348144531 75.43988037109375 C 441.5899047851562 73.51034545898438 442.9435119628906 71.54352569580078 443.7875671386719 69.59405517578125 C 444.6014404296875 67.71440887451172 444.96044921875 65.79481506347656 444.8546752929688 63.88858413696289 C 444.6754455566406 60.65746688842773 443.1627197265625 57.31923294067383 440.3585510253906 53.96652603149414 C 437.4218444824219 50.45535278320312 433.07861328125 46.92823028564453 427.4494323730469 43.48323059082031 C 421.7943115234375 40.02234649658203 414.8204956054688 36.63411712646484 406.7215576171875 33.41264343261719 C 398.6413879394531 30.19864654541016 389.385498046875 27.12876129150391 379.2109680175781 24.28829193115234 C 369.0079650878906 21.43988037109375 357.8031005859375 18.80046844482422 345.9075012207031 16.44329071044922 C 333.8826904296875 14.06058502197266 321.0487976074219 11.94599914550781 307.7623291015625 10.15840911865234 C 280.0966186523438 6.436111450195312 250.7959136962891 4.135993957519531 220.6740875244141 3.321937561035156 C 212.7696685791016 3.108352661132812 204.8055572509766 3 197.0029754638672 3 M 197.0029449462891 -7.62939453125e-06 C 204.8036041259766 -7.62939453125e-06 212.7242279052734 0.10601806640625 220.7551422119141 0.32305908203125 C 344.4190673828125 3.665054321289062 446.0929565429688 32.04993438720703 447.85009765625 63.72240829467773 C 449.4931335449219 93.33802795410156 363.1880798339844 115.3423538208008 250.8703308105469 115.3423538208008 C 243.0696716308594 115.3423538208008 235.1490631103516 115.236328125 227.1181488037109 115.019287109375 C 103.4540710449219 111.6772918701172 1.78021240234375 83.29240417480469 0.0230712890625 51.61993789672852 C -1.61993408203125 22.00431823730469 84.68515014648438 -7.62939453125e-06 197.0029449462891 -7.62939453125e-06 Z" stroke="none" fill="#fff"/>
    </g>
    <g id="Path_563" data-name="Path 563" transform="translate(175.565 6003.711) rotate(-6)" fill="none">
      <path d="M312.142.214C486.049,3.88,628.264,53.788,629.786,111.685s-138.222,101.86-312.13,98.193S1.535,156.3.012,98.407,138.235-3.453,312.142.214Z" stroke="none"/>
      <path d="M 291.94140625 2.999984741210938 C 259.9712524414062 2.999984741210938 228.7348327636719 4.623565673828125 199.0998229980469 7.825653076171875 C 170.3449096679688 10.93264770507812 143.4677429199219 15.4815673828125 119.2150573730469 21.34614562988281 C 95.24188232421875 27.14306640625 74.2689208984375 34.11773681640625 56.87860107421875 42.07640075683594 C 39.425048828125 50.06398010253906 25.9334716796875 58.87965393066406 16.77874755859375 68.27839660644531 C 7.372802734375 77.93490600585938 2.7408447265625 88.04506683349609 3.0113525390625 98.32814788818359 C 3.09765625 101.6117324829102 3.689208984375 104.9403991699219 4.76947021484375 108.2217330932617 C 5.84735107421875 111.4954833984375 7.4390869140625 114.8073196411133 9.50054931640625 118.0652313232422 C 13.6336669921875 124.5972366333008 19.75457763671875 131.0964050292969 27.69329833984375 137.38232421875 C 35.59173583984375 143.6363220214844 45.34722900390625 149.7247314453125 56.68896484375 155.4783172607422 C 67.9822998046875 161.2073974609375 80.933837890625 166.6478118896484 95.1837158203125 171.6485595703125 C 109.4660034179688 176.6607360839844 125.1641540527344 181.2701568603516 141.8420715332031 185.3488159179688 C 158.6981506347656 189.4709777832031 176.7005615234375 193.0863952636719 195.3494873046875 196.0944061279297 C 214.3533325195312 199.1597290039062 234.2228088378906 201.6253204345703 254.4060668945312 203.4226531982422 C 275.1208190917969 205.2673187255859 296.4226684570312 206.4303131103516 317.7199096679688 206.8793182373047 C 324.4223937988281 207.0206451416016 331.1975708007812 207.0923156738281 337.8572387695312 207.0923156738281 C 369.827392578125 207.0923156738281 401.0638427734375 205.4687347412109 430.6988220214844 202.2666473388672 C 459.4538269042969 199.1596527099609 486.3309020996094 194.6107330322266 510.5835571289062 188.7462310791016 C 534.5567626953125 182.9492340087891 555.5297241210938 175.9745635986328 572.9200439453125 168.0158996582031 C 590.3735961914062 160.0283203125 603.8651733398438 151.2127380371094 613.02001953125 141.8139801025391 C 622.4258422851562 132.1574096679688 627.0579223632812 122.047233581543 626.7874145507812 111.7641525268555 C 626.7010498046875 108.4805679321289 626.1094970703125 105.1519012451172 625.0292358398438 101.8705673217773 C 623.951416015625 98.59681701660156 622.3596801757812 95.28498077392578 620.2981567382812 92.02706909179688 C 616.1651000976562 85.49506378173828 610.0441284179688 78.99589538574219 602.1054077148438 72.70997619628906 C 594.2069702148438 66.45597839355469 584.4514770507812 60.36756896972656 573.1097412109375 54.61398315429688 C 561.81640625 48.88490295410156 548.8649291992188 43.44448852539062 534.614990234375 38.44374084472656 C 520.332763671875 33.43156433105469 504.6345825195312 28.8221435546875 487.9565734863281 24.74348449707031 C 471.1005859375 20.62132263183594 453.0980834960938 17.00590515136719 434.44921875 13.99789428710938 C 415.4454040527344 10.93257141113281 395.575927734375 8.46697998046875 375.3926391601562 6.669647216796875 C 354.6779174804688 4.824981689453125 333.3759765625 3.6619873046875 312.0787353515625 3.212982177734375 C 305.3762512207031 3.0716552734375 298.60107421875 2.999984741210938 291.94140625 2.999984741210938 M 291.94140625 -1.52587890625e-05 C 298.6240234375 -1.52587890625e-05 305.3487243652344 0.0704193115234375 312.1419982910156 0.213653564453125 C 486.04931640625 3.88031005859375 628.2635498046875 53.78790283203125 629.786376953125 111.6852340698242 C 631.2496948242188 167.3210296630859 502.2496337890625 210.0923156738281 337.8572387695312 210.0923156738281 C 331.1746215820312 210.0923156738281 324.4499206542969 210.0218811035156 317.6566467285156 209.8786468505859 C 143.7494201660156 206.2119903564453 1.53515625 156.3043975830078 0.0123291015625 98.40706634521484 C -1.4510498046875 42.77127075195312 127.5491027832031 -1.52587890625e-05 291.94140625 -1.52587890625e-05 Z" stroke="none" fill="#fff"/>
    </g>
  </g>
</svg>
