<svg xmlns="http://www.w3.org/2000/svg" width="1875.227" height="928.667"><g data-name="Group 680" opacity=".15" fill="none"><g data-name="Path 558"><path d="M899.958 260.318c258.091-26.184 477.131 18.212 489.237 99.153s-187.306 167.777-445.397 193.96-477.13-18.213-489.236-99.153S641.866 286.5 899.958 260.318z"/><path d="M868.741 266.835c-47.814 5.871-94.204 13.926-137.881 23.94-42.398 9.722-81.658 21.15-116.69 33.969-34.676 12.689-64.553 26.496-88.799 41.037-24.42 14.646-42.63 29.738-54.125 44.857-5.555 7.306-9.533 14.647-11.821 21.816-1.147 3.592-1.888 7.206-2.205 10.742-.319 3.56-.215 7.14.309 10.638.702 4.695 2.176 9.36 4.381 13.865 2.195 4.484 5.169 8.924 8.84 13.197 7.325 8.53 17.609 16.639 30.566 24.104 12.841 7.398 28.41 14.222 46.276 20.282 17.758 6.024 37.925 11.34 59.94 15.802 22.047 4.469 46.124 8.115 71.561 10.838 25.699 2.75 53.01 4.582 81.174 5.444 28.695.878 58.57.758 88.795-.358 31.018-1.144 62.79-3.353 94.434-6.562a1512.27 1512.27 0 0031.52-3.532c47.814-5.871 94.204-13.926 137.881-23.94 42.398-9.722 81.658-21.15 116.69-33.97 34.676-12.688 64.553-26.495 88.799-41.036 24.42-14.646 42.63-29.738 54.125-44.857 5.555-7.306 9.532-14.647 11.82-21.816 1.147-3.592 1.89-7.206 2.206-10.742.318-3.56.214-7.139-.309-10.638-.702-4.695-2.176-9.36-4.381-13.865-2.195-4.484-5.169-8.924-8.84-13.197-7.325-8.53-17.61-16.639-30.566-24.104-12.842-7.398-28.411-14.222-46.276-20.282-17.758-6.024-37.925-11.34-59.94-15.802-22.048-4.469-46.125-8.115-71.562-10.838-25.698-2.75-53.01-4.582-81.173-5.444-28.695-.878-58.57-.758-88.795.358-31.019 1.144-62.791 3.352-94.434 6.562a1512.04 1512.04 0 00-31.52 3.532m-.366-2.977c10.424-1.28 20.95-2.46 31.583-3.54 258.092-26.18 477.13 18.212 489.237 99.153 11.607 77.606-171.239 160.636-413.813 190.42-10.423 1.28-20.95 2.46-31.583 3.54-258.092 26.18-477.131-18.212-489.237-99.153-11.608-77.606 171.24-160.636 413.813-190.42z" fill="#fff"/></g><g data-name="Path 559"><path d="M895.295 233.571c332.583-45.613 618.386 4.566 638.362 112.088s-233.44 231.666-566.024 277.285-618.384-4.567-638.362-112.089S562.712 279.19 895.295 233.571z"/><path d="M856.355 242.363c-61.268 9.723-120.625 22.278-176.424 37.315-54.167 14.597-104.268 31.333-148.913 49.744-44.195 18.225-82.236 37.755-113.067 58.046-31.088 20.462-54.242 41.303-68.82 61.946-7.342 10.397-12.498 20.784-15.326 30.873-1.422 5.073-2.278 10.161-2.545 15.124a63.102 63.102 0 00.961 14.896c1.18 6.348 3.372 12.618 6.517 18.638 3.12 5.972 7.255 11.848 12.291 17.465 10.008 11.162 23.832 21.627 41.088 31.105 17.062 9.37 37.626 17.856 61.12 25.221 23.333 7.316 49.747 13.585 78.507 18.635 28.793 5.056 60.168 8.93 93.254 11.513 33.421 2.61 68.88 3.925 105.39 3.91 37.197-.015 75.867-1.413 114.938-4.153 40.094-2.813 81.107-7.075 121.9-12.67a1895.06 1895.06 0 0039.347-5.82c61.268-9.723 120.625-22.277 176.424-37.314 54.167-14.597 104.268-31.333 148.913-49.744 44.196-18.226 82.237-37.755 113.067-58.047 31.088-20.461 54.242-41.303 68.82-61.946 7.342-10.396 12.498-20.783 15.326-30.872 1.422-5.073 2.278-10.162 2.545-15.124a63.102 63.102 0 00-.961-14.897c-1.18-6.347-3.372-12.618-6.517-18.638-3.12-5.972-7.255-11.848-12.29-17.465-10.009-11.162-23.833-21.627-41.09-31.104-17.061-9.37-37.625-17.856-61.118-25.222-23.334-7.315-49.748-13.585-78.508-18.635-28.793-5.055-60.168-8.929-93.254-11.512-33.422-2.61-68.88-3.925-105.391-3.91-37.196.015-75.866 1.412-114.937 4.153-40.094 2.812-81.107 7.075-121.9 12.67a1895.06 1895.06 0 00-39.347 5.819m-.47-2.964a1888.9 1888.9 0 0139.41-5.828c332.582-45.617 618.386 4.566 638.362 112.088 19.179 103.23-213.672 221.79-526.614 271.456a1888.894 1888.894 0 01-39.41 5.828c-332.582 45.618-618.386-4.566-638.362-112.088-19.178-103.23 213.672-221.79 526.614-271.456z" fill="#fff"/></g><g data-name="Path 560"><path d="M892.945 205.1c407.749-63.062 760.115-6.998 787.035 125.236s-281.805 290.55-689.554 353.612-760.117 6.994-787.035-125.235S485.196 268.166 892.945 205.1z"/><path d="M845.345 216.016c-75.057 13.235-147.714 29.92-215.95 49.594-66.246 19.099-127.462 40.755-181.948 64.365-53.949 23.379-100.322 48.245-137.83 73.908-18.74 12.822-35.29 25.889-49.19 38.838-14.018 13.06-25.575 26.216-34.35 39.106-4.44 6.52-8.239 13.083-11.293 19.505-3.07 6.454-5.466 12.933-7.122 19.256-1.665 6.361-2.625 12.731-2.851 18.933a78.865 78.865 0 001.52 18.593c1.603 7.876 4.46 15.633 8.492 23.057 3.994 7.355 9.24 14.568 15.593 21.437 6.307 6.82 13.855 13.463 22.434 19.747 8.52 6.24 18.254 12.272 28.936 17.927 21.215 11.231 46.718 21.297 75.798 29.915 28.867 8.556 61.498 15.758 96.984 21.404 35.52 5.652 74.189 9.792 114.93 12.304 41.152 2.538 84.778 3.437 129.668 2.673 45.73-.78 93.243-3.293 141.216-7.473 49.23-4.29 99.558-10.388 149.584-18.126a2320.763 2320.763 0 0048.06-7.95c75.057-13.235 147.713-29.92 215.95-49.594 66.246-19.1 127.462-40.755 181.948-64.366 53.948-23.378 100.32-48.244 137.83-73.908 18.739-12.821 35.288-25.888 49.189-38.838 14.018-13.059 25.575-26.216 34.35-39.105 4.439-6.52 8.238-13.083 11.293-19.505 3.07-6.455 5.466-12.933 7.122-19.256 1.665-6.362 2.625-12.732 2.851-18.934a78.865 78.865 0 00-1.52-18.593c-1.603-7.875-4.46-15.632-8.492-23.056-3.994-7.356-9.24-14.568-15.593-21.437-6.307-6.82-13.855-13.464-22.434-19.748-8.52-6.24-18.254-12.271-28.935-17.926-21.216-11.232-46.719-21.297-75.799-29.916-28.867-8.556-61.497-15.757-96.984-21.403-35.52-5.653-74.189-9.792-114.93-12.305-41.151-2.537-84.778-3.436-129.668-2.672-45.73.779-93.242 3.293-141.216 7.473-49.23 4.29-99.557 10.388-149.584 18.125a2320.52 2320.52 0 00-48.059 7.95m-.52-2.954a2310.622 2310.622 0 0148.12-7.96c407.749-63.066 760.116-6.998 787.034 125.231 25.847 126.967-257.836 278.012-641.432 345.65a2310.714 2310.714 0 01-48.122 7.962c-407.748 63.066-760.116 6.998-787.034-125.231C177.544 431.746 461.228 280.7 844.824 213.06z" fill="#fff"/></g><g data-name="Path 561"><path d="M872.922 173.19c488.261-84.327 912.993-22.395 948.663 138.33S1490.356 670.897 1002.1 755.224 89.106 777.62 53.435 616.896 384.66 257.518 872.922 173.19z"/><path d="M816.778 186.545c-89.622 17.432-176.307 39.008-257.645 64.13-78.968 24.39-151.892 51.798-216.745 81.464-31.915 14.599-61.967 29.81-89.322 45.212-27.361 15.406-52.471 31.254-74.633 47.105-22.276 15.932-41.941 32.13-58.448 48.144-8.294 8.047-15.928 16.183-22.689 24.182-6.796 8.04-12.883 16.147-18.092 24.094-5.364 8.186-9.936 16.414-13.587 24.455-3.673 8.091-6.509 16.2-8.428 24.103-1.933 7.96-2.987 15.918-3.132 23.653a98.472 98.472 0 002.306 23.16c2.14 9.64 5.792 19.11 10.857 28.15 5.011 8.944 11.53 17.687 19.373 25.987 7.778 8.23 17.044 16.22 27.543 23.75 10.416 7.47 22.29 14.662 35.29 21.375 12.91 6.666 27.232 13.015 42.569 18.872 15.249 5.824 31.855 11.295 49.357 16.263 34.92 9.912 74.327 18.102 117.126 24.343 42.833 6.245 89.41 10.59 138.436 12.91 49.516 2.344 101.965 2.645 155.89.894 54.93-1.784 111.96-5.717 169.5-11.69 59.047-6.129 119.367-14.483 179.284-24.831 18.9-3.265 37.962-6.764 56.654-10.4 89.623-17.431 176.307-39.007 257.645-64.129 78.968-24.39 151.892-51.798 216.745-81.464 31.915-14.6 61.967-29.81 89.322-45.213 27.361-15.405 52.472-31.254 74.633-47.104 22.276-15.933 41.941-32.13 58.448-48.144 8.295-8.047 15.928-16.183 22.69-24.182 6.795-8.04 12.882-16.147 18.09-24.095 5.366-8.185 9.937-16.413 13.588-24.455 3.673-8.09 6.509-16.2 8.428-24.103 1.933-7.96 2.987-15.917 3.132-23.652a98.472 98.472 0 00-2.306-23.16c-2.14-9.64-5.793-19.111-10.857-28.15-5.011-8.944-11.53-17.687-19.373-25.987-7.778-8.23-17.044-16.22-27.543-23.75-10.416-7.47-22.29-14.662-35.29-21.375-12.91-6.666-27.232-13.016-42.569-18.873-15.248-5.823-31.855-11.295-49.357-16.262-34.92-9.912-74.327-18.102-117.126-24.343-42.833-6.246-89.41-10.59-138.437-12.91-49.515-2.345-101.964-2.645-155.888-.894-54.932 1.784-111.96 5.717-169.501 11.69-59.047 6.128-119.367 14.483-179.284 24.831a2745.273 2745.273 0 00-56.654 10.399m-.573-2.944a2734.936 2734.936 0 0156.717-10.41c488.261-84.328 912.992-22.396 948.663 138.329 34.276 154.436-303.15 343.898-762.77 433.295a2734.93 2734.93 0 01-56.717 10.41C513.837 839.553 89.106 777.62 53.435 616.896c-34.276-154.436 303.15-343.898 762.77-433.295z" fill="#fff"/></g><g data-name="Path 562"><path d="M907.293 340.89c123.485-7.45 227.246 11.966 231.757 43.364s-91.937 62.891-215.421 70.343-227.246-11.97-231.757-43.368 91.937-62.891 215.421-70.34z"/><path d="M883.865 345.626c-22.915 2.005-45.054 4.87-65.802 8.518-20.173 3.545-38.708 7.77-55.092 12.558-16.23 4.742-30.002 9.933-40.932 15.429-5.43 2.73-10.148 5.538-14.027 8.347-3.845 2.785-6.909 5.602-9.106 8.373-1.65 2.082-2.827 4.159-3.498 6.175-.647 1.943-.838 3.887-.566 5.776.46 3.204 2.258 6.397 5.344 9.493 3.231 3.242 7.865 6.377 13.773 9.318 5.935 2.955 13.178 5.722 21.527 8.226 8.33 2.497 17.818 4.749 28.201 6.692 10.413 1.948 21.805 3.6 33.86 4.912 12.187 1.326 25.157 2.314 38.548 2.937 27.885 1.297 57.275 1.034 87.353-.78a880.453 880.453 0 0023.61-1.742c22.914-2.005 45.054-4.871 65.802-8.518 20.172-3.546 38.708-7.77 55.091-12.558 16.23-4.742 30.002-9.934 40.933-15.429 5.428-2.73 10.148-5.538 14.026-8.347 3.845-2.785 6.909-5.602 9.106-8.374 1.65-2.081 2.828-4.158 3.499-6.174.647-1.943.837-3.887.565-5.777-.46-3.203-2.258-6.397-5.343-9.492-3.232-3.242-7.866-6.377-13.774-9.318-5.935-2.955-13.178-5.723-21.527-8.226-8.33-2.498-17.818-4.75-28.2-6.692-10.413-1.948-21.806-3.601-33.861-4.913-12.187-1.325-25.156-2.313-38.548-2.936-27.885-1.297-57.275-1.035-87.353.78a880.453 880.453 0 00-23.609 1.742m-.261-2.988c7.77-.68 15.67-1.265 23.69-1.749 123.484-7.449 227.245 11.967 231.756 43.366 4.218 29.36-79.84 58.802-191.731 68.591-7.771.68-15.67 1.265-23.69 1.748-123.485 7.45-227.246-11.966-231.757-43.365-4.218-29.36 79.841-58.802 191.732-68.591z" fill="#fff"/></g><g data-name="Path 563"><path d="M923.336 292.467c173.565-11.505 319.588 25.818 326.15 83.362s-128.818 113.52-302.384 125.023-319.587-25.822-326.15-83.362 128.82-113.52 302.384-125.023z"/><path d="M903.455 297.003c-31.848 2.786-62.825 7.126-92.068 12.899-28.374 5.601-54.753 12.475-78.402 20.431-23.377 7.865-43.662 16.64-60.293 26.085-16.69 9.478-29.362 19.436-37.663 29.597-8.529 10.44-12.262 20.915-11.096 31.135.372 3.264 1.251 6.528 2.614 9.703 1.359 3.167 3.233 6.328 5.57 9.394 4.687 6.146 11.351 12.087 19.808 17.658 8.413 5.541 18.662 10.756 30.462 15.5 11.75 4.723 25.126 9.013 39.758 12.753 14.665 3.749 30.705 6.972 47.675 9.582 17.15 2.637 35.4 4.67 54.24 6.041 19.199 1.397 39.207 2.122 59.47 2.153 20.797.032 42.12-.666 63.375-2.074a959.7 959.7 0 0020.079-1.543c31.848-2.787 62.825-7.127 92.068-12.9 28.374-5.6 54.753-12.475 78.402-20.43 23.377-7.865 43.662-16.641 60.293-26.085 16.69-9.478 29.362-19.436 37.663-29.597 8.529-10.44 12.262-20.915 11.096-31.136-.372-3.263-1.251-6.528-2.614-9.702-1.359-3.168-3.233-6.328-5.57-9.394-4.687-6.147-11.351-12.088-19.808-17.658-8.413-5.542-18.662-10.757-30.462-15.5-11.75-4.723-25.126-9.014-39.758-12.754-14.664-3.748-30.705-6.972-47.675-9.581-17.15-2.638-35.4-4.67-54.24-6.041-19.199-1.398-39.207-2.122-59.47-2.154-20.797-.032-42.12.666-63.375 2.075a959.7 959.7 0 00-20.079 1.543m-.261-2.989a957.637 957.637 0 0120.142-1.547c173.565-11.505 319.588 25.818 326.15 83.362 6.308 55.297-118.474 109.149-282.24 123.476a957.637 957.637 0 01-20.143 1.548c-173.565 11.504-319.588-25.819-326.15-83.363-6.308-55.296 118.474-109.148 282.24-123.476z" fill="#fff"/></g></g></svg>