<svg data-name="Group 663" xmlns="http://www.w3.org/2000/svg" width="33.65" height="30.239"><defs><linearGradient id="a" x1=".5" x2=".5" y2="1" gradientUnits="objectBoundingBox"><stop offset="0" stop-color="#ffdcb5"/><stop offset="1" stop-color="#8f4605"/></linearGradient><clipPath id="b"><path data-name="Rectangle 194" fill="url(#a)" d="M0 0h33.65v30.239H0z"/></clipPath></defs><g data-name="Group 60" clip-path="url(#b)" fill="url(#a)"><path data-name="Path 161" d="M0 8.427c1 .39 1.995.776 2.99 1.169.637.25 1.273.508 1.942.776a3.363 3.363 0 00-1.472 4.16 3.2 3.2 0 003.01 2.22 3.3 3.3 0 003.11-1.718 1.619 1.619 0 01-1.064-1.056 2.274 2.274 0 01-.016-1.026 1.6 1.6 0 011.558-1.182 1.67 1.67 0 011.621 1.108c.277.787.011 1.438-.867 2.115a3.308 3.308 0 004.038-1.726 3.474 3.474 0 00-2.26-4.853c1.4-1.671 2.785-3.328 4.206-5.026a1.83 1.83 0 01-1.5-1.01A1.672 1.672 0 0117 .005a1.661 1.661 0 011.5 1.533c.091.9-.464 1.536-1.638 1.855 1.4 1.679 2.793 3.344 4.211 5.043a3.459 3.459 0 00-2.425 2.209 3.283 3.283 0 00.107 2.527 3.335 3.335 0 004.077 1.838c-.952-.848-1.171-1.471-.8-2.266a1.679 1.679 0 112.093 2.28 3.219 3.219 0 002.689 1.745 3.426 3.426 0 003.321-2.071 3.34 3.34 0 00.107-2.406 3.572 3.572 0 00-1.542-1.906l4.952-1.984c-1.13 5.078-2.244 10.091-3.361 15.122H3.361l-.8-3.583Q1.318 14.337.069 8.732A1.03 1.03 0 000 8.559v-.132m13.553 10.017c1.114 1.119 2.222 2.23 3.3 3.32l3.24-3.24-3.303-3.309c-1.075 1.07-2.181 2.176-3.237 3.229"/><path data-name="Rectangle 193" d="M3.377 26.933h26.9v3.306h-26.9z"/></g></svg>