<svg xmlns="http://www.w3.org/2000/svg" xmlns:xlink="http://www.w3.org/1999/xlink" width="60.71" height="54.557" viewBox="0 0 60.71 54.557">
  <defs>
    <linearGradient id="linear-gradient" x1="0.5" x2="0.5" y2="1" gradientUnits="objectBoundingBox">
      <stop offset="0" stop-color="#fffac9"/>
      <stop offset="1" stop-color="#e6a115"/>
    </linearGradient>
    <clipPath id="clip-path">
      <rect id="Rectangle_194" data-name="Rectangle 194" width="60.71" height="54.557" fill="url(#linear-gradient)"/>
    </clipPath>
  </defs>
  <g id="Group_931" data-name="Group 931" transform="translate(0 0)">
    <g id="Group_60" data-name="Group 60" transform="translate(0 0)" clip-path="url(#clip-path)">
      <path id="Path_161" data-name="Path 161" d="M0,15.208c1.8.7,3.6,1.4,5.4,2.109,1.148.45,2.3.916,3.5,1.4-2.673,1.921-3.772,4.391-2.658,7.5a5.778,5.778,0,0,0,5.43,4,5.947,5.947,0,0,0,5.613-3.1,2.921,2.921,0,0,1-1.921-1.906,4.1,4.1,0,0,1-.03-1.851,2.89,2.89,0,0,1,2.812-2.133,3.014,3.014,0,0,1,2.925,2c.5,1.421.02,2.594-1.564,3.816,1.747.871,5.6.262,7.286-3.113a6.268,6.268,0,0,0-4.079-8.756c2.524-3.014,5.024-6,7.588-9.068a3.3,3.3,0,0,1-2.7-1.822A3.017,3.017,0,0,1,30.674.012a3,3,0,0,1,2.7,2.767c.163,1.619-.837,2.772-2.955,3.346,2.534,3.029,5.039,6.034,7.6,9.1a6.24,6.24,0,0,0-4.376,3.985,5.923,5.923,0,0,0,.193,4.559c1.282,2.851,4.762,4.41,7.355,3.316-1.718-1.53-2.114-2.653-1.45-4.089a3.031,3.031,0,0,1,5.742.762c.262,1.366-.421,2.534-1.965,3.351.485,1.534,2.816,3.049,4.851,3.148a6.182,6.182,0,0,0,6-3.732,6.027,6.027,0,0,0,.193-4.341,6.445,6.445,0,0,0-2.787-3.44c3.01-1.208,5.92-2.371,8.935-3.579-2.039,9.162-4.049,18.206-6.064,27.284H6.064q-.72-3.237-1.435-6.465Q2.378,25.87.124,15.758A1.858,1.858,0,0,0,0,15.446v-.238M24.452,33.28c2.01,2.02,4.009,4.024,5.96,5.989l5.846-5.846c-1.985-1.985-4-4-5.965-5.97-1.94,1.93-3.935,3.925-5.841,5.826" transform="translate(0 -0.003)" fill="url(#linear-gradient)"/>
      <rect id="Rectangle_193" data-name="Rectangle 193" width="48.533" height="5.965" transform="translate(6.093 48.593)" fill="url(#linear-gradient)"/>
    </g>
  </g>
</svg>
