<svg id="Group_15" data-name="Group 15" xmlns="http://www.w3.org/2000/svg" xmlns:xlink="http://www.w3.org/1999/xlink" width="33" height="30.689" viewBox="0 0 33 30.689">
  <defs>
    <clipPath id="clip-path">
      <rect id="Rectangle_20" data-name="Rectangle 20" width="33" height="30.689" fill="#0d1108"/>
    </clipPath>
  </defs>
  <g id="Group_14" data-name="Group 14" clip-path="url(#clip-path)">
    <path id="Path_14" data-name="Path 14" d="M5.3,24.412a16.128,16.128,0,0,1-1.924-3.491,15.334,15.334,0,1,1,19.177,8.907C16.422,31.8,11.024,30.355,6.472,25.8a.486.486,0,0,0-.56-.128c-.935.238-1.871.488-2.821.644a3.02,3.02,0,0,1-1.269-.146A2.522,2.522,0,0,1,.012,23.825a6.993,6.993,0,0,1,1.236-4.087A.54.54,0,0,1,2,19.564a.569.569,0,0,1,.2.782c-.248.517-.526,1.02-.746,1.549a3.7,3.7,0,0,0-.309,1.892,1.49,1.49,0,0,0,1.4,1.391A4.216,4.216,0,0,0,5.3,24.412m1-.626c.7-.647,1.392-1.252,2.042-1.9a59.6,59.6,0,0,0,5.288-6.194c.283-.373.594-.446.886-.226s.307.546.029.913a62.5,62.5,0,0,1-5.509,6.43c-.146.147-.3.286-.45.429a.835.835,0,0,0,.388-.113,42,42,0,0,0,6.975-4.586c.047-.037.092-.077.139-.114.374-.3.723-.309.948-.032s.167.613-.218.92A41.32,41.32,0,0,1,7.7,24.979c-.092.041-.179.1-.273.147A14.209,14.209,0,1,0,6.3,23.786" transform="translate(0 0)" fill="#0d1108"/>
    <path id="Path_15" data-name="Path 15" d="M148.444,73.917l-.991-.62c-.236.274-.494.6-.784.9a.58.58,0,0,1-.883.07.589.589,0,0,1,.084-.884c.293-.3.59-.588.869-.866l-.537-.9c-.725-.085-1.554-.189-2.385-.276a.648.648,0,0,1-.643-.422.606.606,0,0,1,.292-.705q1.106-.857,2.2-1.725a.865.865,0,0,1,.762-.2c.4.08.806.106,1.206.176a.5.5,0,0,0,.563-.244,10.379,10.379,0,0,1,4.01-3.444,6.993,6.993,0,0,1,3.161-.675c.649.016.823.2.816.858a7.336,7.336,0,0,1-2.007,4.975,24.032,24.032,0,0,1-2.316,2.076.523.523,0,0,0-.236.535c.059.4.083.809.145,1.21a.956.956,0,0,1-.248.821c-.59.691-1.163,1.4-1.739,2.1-.186.226-.391.4-.706.292a.629.629,0,0,1-.418-.641c-.066-.833-.15-1.665-.219-2.418m6.571-8.656a7.033,7.033,0,0,0-4.589,2.11,11.727,11.727,0,0,0-2.782,4.273c.118-.111.224-.207.326-.306.523-.509,1.043-1.022,1.568-1.529.326-.315.662-.339.912-.075s.208.577-.094.885c-.109.111-.227.213-.333.327-.5.529-.988,1.06-1.492,1.6.554-.272,1.131-.524,1.677-.831a9.944,9.944,0,0,0,4.1-3.906,5.631,5.631,0,0,0,.708-2.547M149.7,74.954c.545-.622,1.221-1.112.766-2.054-.255.122-.537.243-.8.394a.337.337,0,0,0-.09.267c.029.439.077.877.125,1.392m-2.417-5.344c-.917-.247-1.311-.1-2.027.74.49.058.96.117,1.432.164a.215.215,0,0,0,.173-.086c.148-.267.281-.542.422-.819" transform="translate(-129.405 -57.954)" fill="#0d1108"/>
    <path id="Path_16" data-name="Path 16" d="M63.1,43.9a.6.6,0,0,1-.515-.893,12.515,12.515,0,0,1,7.775-7.293.571.571,0,0,1,.722.223.5.5,0,0,1-.05.66,1.2,1.2,0,0,1-.46.258,11.284,11.284,0,0,0-5.308,3.765,10.977,10.977,0,0,0-1.6,2.79.657.657,0,0,1-.563.49" transform="translate(-56.518 -32.245)" fill="#0d1108"/>
    <path id="Path_17" data-name="Path 17" d="M179.173,29.979a12.331,12.331,0,0,1,4.641,1.092c.37.167.517.456.4.764a.576.576,0,0,1-.832.3,11.239,11.239,0,0,0-4.551-1.009,1.161,1.161,0,0,1-.249-.029.525.525,0,0,1-.448-.6.509.509,0,0,1,.5-.513,5.247,5.247,0,0,1,.542,0" transform="translate(-161.033 -27.097)" fill="#0d1108"/>
    <path id="Path_18" data-name="Path 18" d="M233.026,94.562a.852.852,0,0,1-.877-.847.825.825,0,0,1,.825-.853.873.873,0,0,1,.887.847.843.843,0,0,1-.835.853m0-1.251c-.141.179-.283.28-.28.377s.144.2.224.3c.107-.09.265-.164.3-.277.025-.076-.122-.208-.247-.4" transform="translate(-209.869 -83.95)" fill="#0d1108"/>
  </g>
</svg>
