<svg xmlns="http://www.w3.org/2000/svg" width="22.767" height="22.771"><g data-name="Group 409" fill="#2d2d2d"><path data-name="Path 494" d="M0 12.101v-1.423c.014-.079.03-.158.041-.238.053-.388.082-.781.159-1.165a11.178 11.178 0 014.75-7.259 11.369 11.369 0 0114.935 16.927 11.2 11.2 0 01-6.519 3.652c-.421.076-.847.119-1.271.177h-1.422c-.278-.034-.556-.064-.833-.1a11.431 11.431 0 01-9.662-9.3C.102 12.951.059 12.524 0 12.1m21.345-.718a9.961 9.961 0 10-9.965 9.966 9.975 9.975 0 009.965-9.966"/><path data-name="Path 495" d="M12.097 8.9v6.616a1.3 1.3 0 01-.03.329.7.7 0 01-.755.521.72.72 0 01-.634-.667V8.847l-.2.188c-.707.707-1.411 1.417-2.123 2.119a.707.707 0 01-1.214-.3.67.67 0 01.184-.674q1.773-1.778 3.55-3.552l.016-.016a.691.691 0 01.983 0q1.8 1.784 3.582 3.582a.693.693 0 01-.023 1 .7.7 0 01-1-.018c-.711-.7-1.416-1.412-2.122-2.121a1.833 1.833 0 01-.148-.193l-.068.041"/></g></svg>