<svg xmlns="http://www.w3.org/2000/svg" width="31.974" height="34.92"><defs><clipPath id="a"><path data-name="Rectangle 522" fill="none" d="M0 0h31.974v34.92H0z"/></clipPath></defs><g data-name="Group 425" clip-path="url(#a)"><path data-name="Path 504" d="M17.079 0a20.909 20.909 0 012.235.412 12 12 0 019 9.82 26.243 26.243 0 01.212 3.7c.008.156 0 .312 0 .46a4 4 0 013.446 4.237c.011 1.682 0 3.363 0 5.045a2.9 2.9 0 01-2.746 3.167.563.563 0 00-.453.29 8.965 8.965 0 01-3.212 3.223 8.655 8.655 0 01-4.021 1.14c-.089 0-.178.014-.261.021a4.294 4.294 0 11-.021-1.756c1.6.342 4.551-1.127 5.546-2.8h-.79a.838.838 0 01-.953-.964V15.632a2.1 2.1 0 01.081-.6.757.757 0 01.81-.585h.756c.034-.05.056-.067.057-.086.153-2.757-.068-5.438-1.692-7.8a10.277 10.277 0 00-9.581-4.776 10.458 10.458 0 00-9.766 9.125c-.151 1.142-.1 2.311-.145 3.527h.823a.839.839 0 01.918.8 3.4 3.4 0 01.019.476v10.261c0 .691-.279.978-.966.978-1.068 0-2.138.027-3.2-.02a3.305 3.305 0 01-3.148-3.178c-.046-1.965-.025-3.931 0-5.9a3.458 3.458 0 013.545-3.421c.089 0 .18-.008.328-.015v-.436a19.75 19.75 0 01.217-3.973A12.168 12.168 0 0111.589.9a11.087 11.087 0 013.526-.846A1 1 0 0015.306 0zM5.6 25.211v-9.053H3.622a1.761 1.761 0 00-1.883 1.863c-.012 1.85-.009 3.7 0 5.551A1.6 1.6 0 003.147 25.2c.808.069 1.626.015 2.458.015m21.207-9.049v9.058c.7 0 1.366.031 2.032-.008.875-.051 1.389-.535 1.393-1.282.01-1.85.015-3.7 0-5.551a2.448 2.448 0 00-.745-1.776 1.521 1.521 0 00-.818-.422 17.93 17.93 0 00-1.859-.019m-7.2 14.529a2.545 2.545 0 10-5.089-.09 2.644 2.644 0 002.6 2.582 2.5 2.5 0 002.49-2.492"/></g></svg>