<svg xmlns="http://www.w3.org/2000/svg" width="15.699" height="20.459"><g data-name="Group 407" fill="#fff"><path data-name="Path 488" d="M7.471 4.835v-.241V.507c0-.388.112-.5.5-.5h2.854c.186 0 .351.028.436.22a.407.407 0 01-.13.471c-.191.206-.377.417-.581.645.2.219.386.434.579.646.124.135.222.274.138.469s-.262.225-.455.224H8.218v2.139a7.663 7.663 0 016.36 3.9 7.259 7.259 0 01.992 5.218 7.7 7.7 0 01-7.847 6.514 7.7 7.7 0 01-7.686-7.08 7.613 7.613 0 01.737-4.1 7.849 7.849 0 016.7-4.436m3.806 1.63a2.75 2.75 0 01-2.712 3.115 2.618 2.618 0 01-1.994-.859A2.744 2.744 0 016.017 5.8 7.046 7.046 0 003.45 7.081c.013.042.022.078.034.112a2.717 2.717 0 01-2.367 3.7c-.159.015-.184.1-.209.212a7.182 7.182 0 00-.092 2.744 7.212 7.212 0 008.964 5.665 6.142 6.142 0 001.554-.68 2.763 2.763 0 013.308-4.2 7.016 7.016 0 00-3.362-8.167m-3.526-.922c-.127.009-.364.012-.6.049a.43.43 0 00-.269.16A1.931 1.931 0 006.6 7.167a1.973 1.973 0 002.488 1.575 1.953 1.953 0 001.372-2.528.446.446 0 00-.235-.238 6.98 6.98 0 00-2.471-.431m4.225 12.877a7.125 7.125 0 002.421-3.051 1.906 1.906 0 00-2.435.479 1.931 1.931 0 00.014 2.572M10.02.749H8.213v1.18h1.826c-.121-.194-.328-.382-.328-.569s.2-.4.309-.61M1.2 10.136a1.956 1.956 0 001.627-2.505A7.061 7.061 0 001.2 10.136"/><path data-name="Path 489" d="M8.562 12.206a1.182 1.182 0 011.173 1.181 1.175 1.175 0 11-2.349 0 1.185 1.185 0 011.176-1.18m.448 1.182a.45.45 0 00-.9 0 .45.45 0 10.9 0"/><path data-name="Path 490" d="M5.287 15.59a1.169 1.169 0 11-1.157-1.192 1.168 1.168 0 011.157 1.192m-1.611-.027a.443.443 0 10.885.033.443.443 0 10-.885-.033"/><path data-name="Path 491" d="M12.025 11.427a.416.416 0 01-.4-.416.403.403 0 11.806.012.421.421 0 01-.41.4"/><path data-name="Path 492" d="M5.469 12.976a.421.421 0 01-.41-.4.405.405 0 01.809-.011.419.419 0 01-.4.415"/><path data-name="Path 493" d="M7.819 17.775a.421.421 0 01-.387-.426.404.404 0 01.808.034.42.42 0 01-.421.392"/></g></svg>