<svg data-name="Group 15" xmlns="http://www.w3.org/2000/svg" width="33" height="30.689"><defs><clipPath id="a"><path data-name="Rectangle 20" fill="#0d1108" d="M0 0h33v30.689H0z"/></clipPath></defs><g data-name="Group 14" clip-path="url(#a)" fill="#0d1108"><path data-name="Path 14" d="M5.3 24.412a16.128 16.128 0 01-1.924-3.491 15.334 15.334 0 1119.177 8.907c-6.131 1.972-11.529.527-16.081-4.028a.486.486 0 00-.56-.128c-.935.238-1.871.488-2.821.644a3.02 3.02 0 01-1.269-.146 2.522 2.522 0 01-1.81-2.345 6.993 6.993 0 011.236-4.087.54.54 0 01.752-.174.569.569 0 01.2.782c-.248.517-.526 1.02-.746 1.549a3.7 3.7 0 00-.309 1.892 1.49 1.49 0 001.4 1.391 4.216 4.216 0 002.755-.766m1-.626c.7-.647 1.392-1.252 2.042-1.9a59.6 59.6 0 005.288-6.194c.283-.373.594-.446.886-.226s.307.546.029.913a62.5 62.5 0 01-5.509 6.43c-.146.147-.3.286-.45.429a.835.835 0 00.388-.113 42 42 0 006.975-4.586c.047-.037.092-.077.139-.114.374-.3.723-.309.948-.032s.167.613-.218.92A41.32 41.32 0 017.7 24.979c-.092.041-.179.1-.273.147a14.209 14.209 0 10-1.127-1.34"/><path data-name="Path 15" d="M19.039 15.963l-.991-.62c-.236.274-.494.6-.784.9a.58.58 0 01-.883.07.589.589 0 01.084-.884c.293-.3.59-.588.869-.866l-.537-.9c-.725-.085-1.554-.189-2.385-.276a.648.648 0 01-.643-.422.606.606 0 01.292-.705q1.106-.857 2.2-1.725a.865.865 0 01.762-.2c.4.08.806.106 1.206.176a.5.5 0 00.563-.244 10.379 10.379 0 014.01-3.444 6.993 6.993 0 013.161-.675c.649.016.823.2.816.858a7.336 7.336 0 01-2.007 4.975 24.032 24.032 0 01-2.316 2.076.523.523 0 00-.236.535c.059.4.083.809.145 1.21a.956.956 0 01-.248.821c-.59.691-1.163 1.4-1.739 2.1-.186.226-.391.4-.706.292a.629.629 0 01-.418-.641c-.066-.833-.15-1.665-.219-2.418M25.606 7.3a7.033 7.033 0 00-4.589 2.11 11.727 11.727 0 00-2.782 4.273c.118-.111.224-.207.326-.306.523-.509 1.043-1.022 1.568-1.529.326-.315.662-.339.912-.075s.208.577-.094.885c-.109.111-.227.213-.333.327-.5.529-.988 1.06-1.492 1.6.554-.272 1.131-.524 1.677-.831a9.944 9.944 0 004.1-3.906 5.631 5.631 0 00.708-2.547M20.295 17c.545-.622 1.221-1.112.766-2.054-.255.122-.537.243-.8.394a.337.337 0 00-.09.267c.029.439.077.877.125 1.392m-2.417-5.344c-.917-.247-1.311-.1-2.027.74.49.058.96.117 1.432.164a.215.215 0 00.173-.086c.148-.267.281-.542.422-.819"/><path data-name="Path 16" d="M6.582 11.655a.6.6 0 01-.515-.893 12.515 12.515 0 017.775-7.293.571.571 0 01.722.223.5.5 0 01-.05.66 1.2 1.2 0 01-.46.258 11.284 11.284 0 00-5.308 3.765 10.977 10.977 0 00-1.6 2.79.657.657 0 01-.563.49"/><path data-name="Path 17" d="M18.14 2.882a12.331 12.331 0 014.641 1.092c.37.167.517.456.4.764a.576.576 0 01-.832.3 11.239 11.239 0 00-4.551-1.009A1.161 1.161 0 0117.549 4a.525.525 0 01-.448-.6.509.509 0 01.5-.513 5.247 5.247 0 01.542 0"/><path data-name="Path 18" d="M23.157 10.612a.852.852 0 01-.877-.847.825.825 0 01.825-.853.873.873 0 01.887.847.843.843 0 01-.835.853m0-1.251c-.141.179-.283.28-.28.377s.144.2.224.3c.107-.09.265-.164.3-.277.025-.076-.122-.208-.247-.4"/></g></svg>