<svg id="Group_663" data-name="Group 663" xmlns="http://www.w3.org/2000/svg" xmlns:xlink="http://www.w3.org/1999/xlink" width="33.65" height="30.239" viewBox="0 0 33.65 30.239">
  <defs>
    <linearGradient id="linear-gradient" x1="0.5" x2="0.5" y2="1" gradientUnits="objectBoundingBox">
      <stop offset="0" stop-color="#ffdcb5"/>
      <stop offset="1" stop-color="#8f4605"/>
    </linearGradient>
    <clipPath id="clip-path">
      <rect id="Rectangle_194" data-name="Rectangle 194" width="33.65" height="30.239" fill="url(#linear-gradient)"/>
    </clipPath>
  </defs>
  <g id="Group_60" data-name="Group 60" clip-path="url(#clip-path)">
    <path id="Path_161" data-name="Path 161" d="M0,8.429c1,.39,1.995.776,2.99,1.169.637.25,1.273.508,1.942.776A3.363,3.363,0,0,0,3.46,14.534a3.2,3.2,0,0,0,3.01,2.22A3.3,3.3,0,0,0,9.58,15.036,1.619,1.619,0,0,1,8.516,13.98,2.274,2.274,0,0,1,8.5,12.954a1.6,1.6,0,0,1,1.558-1.182,1.67,1.67,0,0,1,1.621,1.108c.277.787.011,1.438-.867,2.115a3.308,3.308,0,0,0,4.038-1.726A3.474,3.474,0,0,0,12.59,8.416c1.4-1.671,2.785-3.328,4.206-5.026a1.83,1.83,0,0,1-1.5-1.01A1.672,1.672,0,0,1,17,.007,1.661,1.661,0,0,1,18.5,1.54c.091.9-.464,1.536-1.638,1.855,1.4,1.679,2.793,3.344,4.211,5.043a3.459,3.459,0,0,0-2.425,2.209,3.283,3.283,0,0,0,.107,2.527,3.335,3.335,0,0,0,4.077,1.838c-.952-.848-1.171-1.471-.8-2.266a1.679,1.679,0,1,1,2.093,2.28,3.219,3.219,0,0,0,2.689,1.745A3.426,3.426,0,0,0,30.135,14.7a3.34,3.34,0,0,0,.107-2.406A3.572,3.572,0,0,0,28.7,10.388c1.668-.669,3.281-1.314,4.952-1.984-1.13,5.078-2.244,10.091-3.361,15.122H3.361q-.4-1.794-.8-3.583Q1.318,14.339.069,8.734A1.03,1.03,0,0,0,0,8.561V8.429M13.553,18.446c1.114,1.119,2.222,2.23,3.3,3.32l3.24-3.24L16.79,15.217c-1.075,1.07-2.181,2.176-3.237,3.229" transform="translate(0 -0.002)" fill="url(#linear-gradient)"/>
    <rect id="Rectangle_193" data-name="Rectangle 193" width="26.9" height="3.306" transform="translate(3.377 26.933)" fill="url(#linear-gradient)"/>
  </g>
</svg>
