<svg xmlns="http://www.w3.org/2000/svg" xmlns:xlink="http://www.w3.org/1999/xlink" width="31.974" height="34.92" viewBox="0 0 31.974 34.92">
  <defs>
    <clipPath id="clip-path">
      <rect id="Rectangle_522" data-name="Rectangle 522" width="31.974" height="34.92" fill="none"/>
    </clipPath>
  </defs>
  <g id="Group_425" data-name="Group 425" clip-path="url(#clip-path)">
    <path id="Path_504" data-name="Path 504" d="M17.079,0a20.909,20.909,0,0,1,2.235.412,12,12,0,0,1,9,9.82,26.243,26.243,0,0,1,.212,3.7c.008.156,0,.312,0,.46a4,4,0,0,1,3.446,4.237c.011,1.682,0,3.363,0,5.045a2.9,2.9,0,0,1-2.746,3.167.563.563,0,0,0-.453.29,8.965,8.965,0,0,1-3.212,3.223,8.655,8.655,0,0,1-4.021,1.14c-.089,0-.178.014-.261.021a4.294,4.294,0,1,1-.021-1.756c1.6.342,4.551-1.127,5.546-2.8-.288,0-.539,0-.79,0a.838.838,0,0,1-.953-.964q0-5.181,0-10.363a2.1,2.1,0,0,1,.081-.6.757.757,0,0,1,.81-.585c.259,0,.519,0,.756,0,.034-.05.056-.067.057-.086.153-2.757-.068-5.438-1.692-7.8a10.277,10.277,0,0,0-9.581-4.776A10.458,10.458,0,0,0,5.726,10.91c-.151,1.142-.1,2.311-.145,3.527.313,0,.568,0,.823,0a.839.839,0,0,1,.918.8,3.4,3.4,0,0,1,.019.476q0,5.13,0,10.261c0,.691-.279.978-.966.978-1.068,0-2.138.027-3.2-.02A3.305,3.305,0,0,1,.027,23.754c-.046-1.965-.025-3.931,0-5.9a3.458,3.458,0,0,1,3.545-3.421c.089,0,.18-.008.328-.015,0-.151,0-.293,0-.436a19.75,19.75,0,0,1,.217-3.973A12.168,12.168,0,0,1,11.589.9,11.087,11.087,0,0,1,15.115.054,1,1,0,0,0,15.306,0ZM5.6,25.211V16.158H3.622a1.761,1.761,0,0,0-1.883,1.863c-.012,1.85-.009,3.7,0,5.551A1.6,1.6,0,0,0,3.147,25.2c.808.069,1.626.015,2.458.015m21.207-9.049v9.058c.7,0,1.366.031,2.032-.008.875-.051,1.389-.535,1.393-1.282.01-1.85.015-3.7,0-5.551a2.448,2.448,0,0,0-.745-1.776,1.521,1.521,0,0,0-.818-.422,17.93,17.93,0,0,0-1.859-.019m-7.2,14.529a2.545,2.545,0,1,0-5.089-.09,2.644,2.644,0,0,0,2.6,2.582,2.5,2.5,0,0,0,2.49-2.492" transform="translate(0)"/>
  </g>
</svg>
