<svg id="Group_1548" data-name="Group 1548" xmlns="http://www.w3.org/2000/svg" xmlns:xlink="http://www.w3.org/1999/xlink" width="31.333" height="33.12" viewBox="0 0 31.333 33.12">
  <defs>
    <clipPath id="clip-path">
      <rect id="Rectangle_791" data-name="Rectangle 791" width="31.333" height="33.12" fill="#fff"/>
    </clipPath>
  </defs>
  <g id="Group_1547" data-name="Group 1547" clip-path="url(#clip-path)">
    <path id="Path_611" data-name="Path 611" d="M14.89,33.121c-.672-.085-1.349-.138-2.014-.26A15.408,15.408,0,0,1,3.409,27.2,15.2,15.2,0,0,1,.141,19.543,15.689,15.689,0,0,1,11.013,2.467a14.942,14.942,0,0,1,3.937-.679c.2-.007.4-.021.624-.033,0-.385,0-.739,0-1.093a2.086,2.086,0,0,1,.035-.45.229.229,0,0,1,.366-.17A1.964,1.964,0,0,1,16.3.258q1.316,1.072,2.628,2.15c.48.395.486.778.017,1.178q-1.292,1.1-2.59,2.2a.488.488,0,0,1-.126.1c-.144.052-.327.166-.428.117s-.173-.261-.181-.406c-.023-.418-.008-.839-.008-1.327-.614.052-1.2.064-1.781.156a12.958,12.958,0,0,0-9.759,6.845A12.513,12.513,0,0,0,2.64,19.144a12.821,12.821,0,0,0,5.264,8.9,12.781,12.781,0,0,0,8.784,2.512,12.9,12.9,0,0,0,5.342-1.593,1.292,1.292,0,0,1,1.487.018,1.239,1.239,0,0,1-.167,2.121,26.337,26.337,0,0,1-2.772,1.224,13.1,13.1,0,0,1-3.693.744,1.644,1.644,0,0,0-.249.055Z" transform="translate(-0.001 0)" fill="#fff"/>
    <path id="Path_612" data-name="Path 612" d="M90.217,106.821c.21-.615.436-1.23.629-1.854a2.378,2.378,0,0,1,1.977-1.765c.888-.166,1.766-.388,2.648-.589a.629.629,0,0,0,.338-.992c-.7-.838-1.385-1.68-2.088-2.512a1.6,1.6,0,0,1-.305-1.632c.275-.839.557-1.674.836-2.512.023-.07.037-.143.058-.228-.1-.042-.187-.08-.275-.114a.3.3,0,0,1-.2-.416c.129-.4.267-.8.407-1.192.1-.28.306-.253.53-.177q1.757.6,3.515,1.195l6.664,2.265c.434.148.472.225.325.662-.082.245-.167.489-.251.733-.194.569-.194.569-.807.421-.179.522-.359,1.047-.539,1.573-.084.244-.167.489-.248.734a2.308,2.308,0,0,1-1.867,1.634c-.907.185-1.808.4-2.712.6a.626.626,0,0,0-.343.989c.661.8,1.307,1.606,1.991,2.381a1.824,1.824,0,0,1,.359,1.951c-.253.731-.5,1.465-.749,2.217.09.038.165.073.243.1a.33.33,0,0,1,.225.482c-.12.334-.23.672-.346,1.008-.135.392-.223.436-.62.3l-8.1-2.755c-.7-.239-1.407-.477-2.108-.719-.342-.118-.39-.215-.28-.554.086-.266.18-.53.271-.794.2-.584.2-.584.817-.442m.965.358,7.946,2.7c.257-.767.494-1.5.754-2.232a.918.918,0,0,0-.205-1c-.748-.863-1.462-1.756-2.206-2.623a.763.763,0,0,1-.151-.86,8.422,8.422,0,0,0,.3-.885.707.707,0,0,1,.6-.545c1.063-.226,2.122-.475,3.184-.7a1.287,1.287,0,0,0,1.032-.91c.2-.613.417-1.222.624-1.833.057-.169.107-.341.166-.531l-7.925-2.694c-.3.9-.587,1.767-.884,2.631a.834.834,0,0,0,.186.89c.764.892,1.506,1.8,2.266,2.7a.7.7,0,0,1,.144.772,9.378,9.378,0,0,0-.307.918.754.754,0,0,1-.652.579c-1.064.221-2.123.469-3.184.7a1.119,1.119,0,0,0-.879.64c-.29.739-.537,1.494-.817,2.286" transform="translate(-81.458 -84.851)" fill="#fff"/>
    <path id="Path_613" data-name="Path 613" d="M289.008,301.521a2.412,2.412,0,0,1,1.78-1.895,1.192,1.192,0,0,1,1.138.6,1.126,1.126,0,0,1-.013,1.308,5.67,5.67,0,0,1-.889.975,1.143,1.143,0,0,1-1.3.145,1.238,1.238,0,0,1-.714-1.138" transform="translate(-264.29 -273.998)" fill="#fff"/>
    <path id="Path_614" data-name="Path 614" d="M321.558,252.441a3.568,3.568,0,0,1,.725-1.576,1.243,1.243,0,0,1,2.07,1.229,6.536,6.536,0,0,1-.524,1.173,1.2,1.2,0,0,1-1.382.5,1.292,1.292,0,0,1-.89-1.328" transform="translate(-294.056 -229.071)" fill="#fff"/>
    <path id="Path_615" data-name="Path 615" d="M339.106,195.989c-.021.233-.032.47-.067.7a1.242,1.242,0,0,1-1.317,1.074,1.228,1.228,0,0,1-1.164-1.234,7.521,7.521,0,0,1,.063-1.062,1.236,1.236,0,0,1,1.331-1.092,1.256,1.256,0,0,1,1.154,1.283c0,.108,0,.215,0,.326" transform="translate(-307.773 -177.751)" fill="#fff"/>
    <path id="Path_616" data-name="Path 616" d="M263.6,49.682a1.248,1.248,0,0,1-1.838,1.105,6.024,6.024,0,0,1-.976-.684,1.245,1.245,0,0,1,1.406-2.032,7.657,7.657,0,0,1,1.005.7,1.119,1.119,0,0,1,.4.914" transform="translate(-238.098 -43.822)" fill="#fff"/>
    <path id="Path_617" data-name="Path 617" d="M302.562,88.178a1.278,1.278,0,0,1,.786-1.241,1.206,1.206,0,0,1,1.361.3,6.571,6.571,0,0,1,.728,1.022,1.207,1.207,0,0,1-.306,1.517,1.156,1.156,0,0,1-1.538.035,8.689,8.689,0,0,1-.974-1.344.628.628,0,0,1-.058-.29" transform="translate(-276.685 -79.418)" fill="#fff"/>
    <path id="Path_618" data-name="Path 618" d="M331.768,139.736a1.253,1.253,0,0,1-1.029,1.274,1.222,1.222,0,0,1-1.379-.761,7.164,7.164,0,0,1-.314-1.083,1.25,1.25,0,0,1,2.39-.693c.126.33.21.677.3,1.018a1.279,1.279,0,0,1,.027.245" transform="translate(-300.879 -125.9)" fill="#fff"/>
  </g>
</svg>
