<svg xmlns="http://www.w3.org/2000/svg" width="38.992" height="36.75"><defs><linearGradient id="a" x1=".5" x2=".5" y2="1" gradientUnits="objectBoundingBox"><stop offset="0" stop-color="#ffdcb5"/><stop offset="1" stop-color="#8f4605"/></linearGradient><clipPath id="b"><path data-name="Rectangle 194" fill="url(#a)" d="M0 0h32.252v28.983H0z"/></clipPath></defs><g data-name="Group 663"><g data-name="Group 60" clip-path="url(#b)" fill="url(#a)" transform="rotate(-16 31.628 4.445)"><path data-name="Path 161" d="M0 8.078c.955.373 1.912.744 2.866 1.12.61.239 1.22.486 1.862.744a3.223 3.223 0 00-1.412 3.987A3.07 3.07 0 006.2 16.057a3.16 3.16 0 002.982-1.646 1.552 1.552 0 01-1.02-1.012 2.179 2.179 0 01-.016-.983 1.535 1.535 0 011.494-1.135 1.6 1.6 0 011.554 1.062c.266.755.011 1.378-.831 2.027a3.171 3.171 0 003.871-1.654 3.33 3.33 0 00-2.167-4.652c1.341-1.6 2.669-3.19 4.031-4.817a1.754 1.754 0 01-1.433-.968A1.6 1.6 0 0116.3.005a1.592 1.592 0 011.433 1.47c.087.86-.444 1.473-1.57 1.778 1.346 1.609 2.677 3.205 4.036 4.833a3.315 3.315 0 00-2.328 2.113 3.147 3.147 0 00.1 2.422 3.2 3.2 0 003.908 1.762c-.912-.813-1.123-1.409-.77-2.172a1.609 1.609 0 112.008 2.188 3.085 3.085 0 002.577 1.672 3.284 3.284 0 003.19-1.983 3.2 3.2 0 00.1-2.306 3.424 3.424 0 00-1.48-1.828c1.6-.642 3.145-1.26 4.746-1.9-1.083 4.867-2.151 9.672-3.221 14.494H3.221l-.763-3.434Q1.264 13.742.066 8.37A.987.987 0 000 8.205v-.127m12.99 9.6c1.068 1.073 2.13 2.138 3.166 3.182l3.106-3.106-3.169-3.171a823.66 823.66 0 00-3.1 3.1"/><path data-name="Rectangle 193" d="M3.237 25.815H29.02v3.169H3.237z"/></g></g></svg>