<svg xmlns="http://www.w3.org/2000/svg" xmlns:xlink="http://www.w3.org/1999/xlink" width="49.491" height="46.646" viewBox="0 0 49.491 46.646">
  <defs>
    <linearGradient id="linear-gradient" x1="0.5" x2="0.5" y2="1" gradientUnits="objectBoundingBox">
      <stop offset="0" stop-color="#fff"/>
      <stop offset="1" stop-color="gray"/>
    </linearGradient>
    <clipPath id="clip-path">
      <rect id="Rectangle_194" data-name="Rectangle 194" width="40.937" height="36.788" fill="url(#linear-gradient)"/>
    </clipPath>
  </defs>
  <g id="Group_661" data-name="Group 661" transform="translate(0 11.284) rotate(-16)">
    <g id="Group_60" data-name="Group 60" clip-path="url(#clip-path)">
      <path id="Path_161" data-name="Path 161" d="M0,10.255c1.212.474,2.426.945,3.638,1.422.774.3,1.549.617,2.363.945-1.8,1.3-2.543,2.961-1.792,5.06a3.9,3.9,0,0,0,3.661,2.7,4.01,4.01,0,0,0,3.785-2.089,1.97,1.97,0,0,1-1.3-1.285,2.766,2.766,0,0,1-.02-1.248,1.949,1.949,0,0,1,1.9-1.439,2.032,2.032,0,0,1,1.973,1.348c.337.958.013,1.749-1.055,2.573a4.024,4.024,0,0,0,4.913-2.1,4.227,4.227,0,0,0-2.75-5.9c1.7-2.033,3.388-4.049,5.117-6.115A2.226,2.226,0,0,1,18.614,2.9,2.035,2.035,0,0,1,20.684.008,2.021,2.021,0,0,1,22.5,1.874c.11,1.091-.564,1.869-1.993,2.256,1.709,2.043,3.4,4.069,5.123,6.135a4.208,4.208,0,0,0-2.951,2.687,3.994,3.994,0,0,0,.13,3.074,4.057,4.057,0,0,0,4.96,2.236c-1.158-1.031-1.425-1.789-.978-2.757a2.043,2.043,0,1,1,2.547,2.774A3.916,3.916,0,0,0,32.612,20.4a4.169,4.169,0,0,0,4.049-2.517,4.064,4.064,0,0,0,.13-2.927,4.346,4.346,0,0,0-1.879-2.32c2.029-.814,3.992-1.6,6.025-2.413-1.375,6.178-2.73,12.276-4.089,18.4H4.089q-.486-2.183-.968-4.359Q1.6,17.444.083,10.625A1.253,1.253,0,0,0,0,10.415v-.16M16.488,22.441c1.355,1.362,2.7,2.714,4.019,4.039l3.942-3.942c-1.338-1.338-2.7-2.7-4.022-4.025-1.308,1.3-2.653,2.647-3.938,3.928" transform="translate(0 -0.002)" fill="url(#linear-gradient)"/>
      <rect id="Rectangle_193" data-name="Rectangle 193" width="32.726" height="4.022" transform="translate(4.109 32.766)" fill="url(#linear-gradient)"/>
    </g>
  </g>
</svg>
