<svg xmlns="http://www.w3.org/2000/svg" width="30" height="29"><defs><clipPath id="a"><path data-name="Rectangle 16" transform="translate(-.326 .489)" fill="#f8f6ff" d="M0 0h30v29H0z"/></clipPath></defs><g data-name="Group 1494"><g data-name="Group 8"><g data-name="Group 7" transform="translate(.326 -.489)" clip-path="url(#a)" fill="#f8f6ff"><path data-name="Path 6" d="M14.419.314v1.941l-1.823.132L12.319.47l1.176-.156z"/><path data-name="Path 7" d="M-.336 14.144l.154-1.173 1.919.269-.131 1.823H-.336v-.922"/><path data-name="Path 8" d="M15.336 2.304l.136-1.9A14.726 14.726 0 11-.264 16.122l1.917-.136a12.686 12.686 0 005.4 9.509 12.246 12.246 0 008.657 2.291 12.788 12.788 0 00-.374-25.482"/><path data-name="Path 9" d="M5.967 9.954l1.164-1.557c.092.063.177.118.258.178q2.582 1.931 5.159 3.868a.371.371 0 00.477.032 2.943 2.943 0 11-1.53 2.942 3.583 3.583 0 01.065-1 .32.32 0 00-.144-.377q-2.609-1.944-5.21-3.9c-.075-.056-.147-.117-.238-.189m7.469 5.1a.981.981 0 101-.966.98.98 0 00-1 .966"/><path data-name="Path 10" d="M3.253 5.389l1.486 1.29-1.1 1.461-1.655-1.066 1.265-1.685"/><path data-name="Path 11" d="M10.806 2.773l-1.707.642-.821-1.786 1.975-.737.553 1.885"/><path data-name="Path 12" d="M.978 8.924l1.79.82-.638 1.708-1.887-.55.735-1.978"/><path data-name="Path 13" d="M6.427 2.632l1.068 1.657-1.46 1.1-1.293-1.49 1.681-1.267"/></g></g></g></svg>