<svg xmlns="http://www.w3.org/2000/svg" width="60.71" height="54.557"><defs><linearGradient id="a" x1=".5" x2=".5" y2="1" gradientUnits="objectBoundingBox"><stop offset="0" stop-color="#fffac9"/><stop offset="1" stop-color="#e6a115"/></linearGradient><clipPath id="b"><path data-name="Rectangle 194" fill="url(#a)" d="M0 0h60.71v54.557H0z"/></clipPath></defs><g data-name="Group 931"><g data-name="Group 60" clip-path="url(#b)" fill="url(#a)"><path data-name="Path 161" d="M0 15.205c1.8.7 3.6 1.4 5.4 2.109 1.148.45 2.3.916 3.5 1.4-2.673 1.921-3.772 4.391-2.658 7.5a5.778 5.778 0 005.43 4 5.947 5.947 0 005.613-3.1 2.921 2.921 0 01-1.921-1.906 4.1 4.1 0 01-.03-1.851 2.89 2.89 0 012.812-2.133 3.014 3.014 0 012.925 2c.5 1.421.02 2.594-1.564 3.816 1.747.871 5.6.262 7.286-3.113a6.268 6.268 0 00-4.079-8.756c2.524-3.014 5.024-6 7.588-9.068a3.3 3.3 0 01-2.7-1.822A3.017 3.017 0 0130.674.009a3 3 0 012.7 2.767c.163 1.619-.837 2.772-2.955 3.346 2.534 3.029 5.039 6.034 7.6 9.1a6.24 6.24 0 00-4.376 3.985 5.923 5.923 0 00.193 4.559c1.282 2.851 4.762 4.41 7.355 3.316-1.718-1.53-2.114-2.653-1.45-4.089a3.031 3.031 0 015.742.762c.262 1.366-.421 2.534-1.965 3.351.485 1.534 2.816 3.049 4.851 3.148a6.182 6.182 0 006-3.732 6.027 6.027 0 00.193-4.341 6.445 6.445 0 00-2.787-3.44c3.01-1.208 5.92-2.371 8.935-3.579-2.039 9.162-4.049 18.206-6.064 27.284H6.064q-.72-3.237-1.435-6.465Q2.378 25.867.124 15.755A1.858 1.858 0 000 15.443v-.238m24.452 18.072c2.01 2.02 4.009 4.024 5.96 5.989l5.846-5.846c-1.985-1.985-4-4-5.965-5.97-1.94 1.93-3.935 3.925-5.841 5.826"/><path data-name="Rectangle 193" d="M6.093 48.593h48.533v5.965H6.093z"/></g></g></svg>