<svg id="Group_4188" data-name="Group 4188" xmlns="http://www.w3.org/2000/svg" xmlns:xlink="http://www.w3.org/1999/xlink" width="40.861" height="49" viewBox="0 0 40.861 49">
  <defs>
    <clipPath id="clip-path">
      <rect id="Rectangle_1753" data-name="Rectangle 1753" width="40.861" height="49" fill="#5d00ff"/>
    </clipPath>
  </defs>
  <g id="Group_4187" data-name="Group 4187" clip-path="url(#clip-path)">
    <path id="Path_1439" data-name="Path 1439" d="M2.553,49c-.145-.056-.289-.117-.437-.168A2.951,2.951,0,0,1,.056,46.064C.043,41.2-.092,36.33.111,31.475A14.636,14.636,0,0,1,6.2,20.2q1.8-1.389,3.624-2.74a.909.909,0,0,0,.418-.826q-.022-5.645-.007-11.289a5.076,5.076,0,0,1,3.5-5.051A6.145,6.145,0,0,1,15.423.021c1.243-.039,2.488.007,3.731-.02a1.284,1.284,0,0,1,1.315.815A5.358,5.358,0,0,0,25,4.044a5.392,5.392,0,0,0,5.412-2.785A4.139,4.139,0,0,1,30.8.551c.206-.219.494-.506.749-.509A42,42,0,0,1,36.61.122a4.93,4.93,0,0,1,4.234,4.722c.008.191.013.383.013.574q0,13.992,0,27.984a4.968,4.968,0,0,1-3,4.9,6.418,6.418,0,0,1-2.266.462c-1.224.073-2.455,0-3.683.027a1.242,1.242,0,0,1-1.27-.8,5.492,5.492,0,0,0-4.189-3.205c-.277-.049-.563-.045-.907-.071,0,.256,0,.459,0,.662-.016,1.419.065,2.847-.072,4.254a6.055,6.055,0,0,1-5.024,5.224c0,.3,0,.614,0,.929a3.05,3.05,0,0,1-2.411,3.14,1.193,1.193,0,0,0-.173.077Zm14.5-12.248c.556,0,1.033.02,1.507-.012a.589.589,0,0,0,.381-.266,7.627,7.627,0,0,1,13.216,0,.674.674,0,0,0,.48.267c.956.025,1.913.013,2.87.012a3.078,3.078,0,0,0,3.312-3.313q0-9.3,0-18.608v-.543c-.368,0-.669.009-.969,0A.989.989,0,0,1,36.8,13.3a1,1,0,0,1,1.068-1.036c.312-.009.624,0,.959,0,0-2.379,0-4.689,0-7a3.071,3.071,0,0,0-3.177-3.213c-.989-.012-1.978.008-2.966-.009a.567.567,0,0,0-.561.331,7.6,7.6,0,0,1-13.139-.015.57.57,0,0,0-.569-.316c-.941.014-1.882,0-2.823.006a3.068,3.068,0,0,0-3.3,3.28c-.006,2.153,0,4.305,0,6.458,0,.152.017.3.027.477.35,0,.652-.009.953,0a1.027,1.027,0,0,1,1.049,1.017,1.015,1.015,0,0,1-1.051,1.009c-.313.012-.627,0-.937,0v9.171c.171-.152.29-.254.405-.361q2.551-2.35,5.1-4.7a2.057,2.057,0,0,1,3.218.184,5.862,5.862,0,0,1-.215,7.99c-.976,1.008-1.976,1.994-2.98,2.974a.544.544,0,0,0-.161.661,7.712,7.712,0,0,1,.38,3.3,8.719,8.719,0,0,1-1.026,3.248M10.231,19.706c-1.007.761-1.929,1.437-2.83,2.141A13.018,13.018,0,0,0,2.094,32.294c-.075,4.5-.02,8.993-.017,13.49a1.054,1.054,0,0,0,1.181,1.181c.622.01,1.244,0,1.866,0q6,0,12.009,0c.9,0,1.275-.381,1.283-1.284,0-.51,0-1.02,0-1.531.005-.907.318-1.233,1.224-1.279A3.918,3.918,0,0,0,23.4,39.536a39.88,39.88,0,0,0,.032-4.393c-.077.029-.18.061-.276.107a5.289,5.289,0,0,0-2.617,2.616,1.421,1.421,0,0,1-1.534.932c-1-.048-2.009,0-3.014-.019a.868.868,0,0,0-.812.371c-.3.411-.645.79-.975,1.179a1.031,1.031,0,1,1-1.572-1.3c.7-.85,1.429-1.675,2.1-2.543a5.859,5.859,0,0,0,.816-6.207,1.15,1.15,0,0,1,.315-1.614q1.725-1.726,3.45-3.451A3.762,3.762,0,0,0,20.447,22a3.537,3.537,0,0,0-1.084-2.215c-.206.185-.374.332-.538.483q-4.044,3.729-8.088,7.459c-.95.875-1.9,1.754-2.856,2.618a.967.967,0,0,1-1.232.13A.917.917,0,0,1,6.2,29.4a1.655,1.655,0,0,1,.461-.7c1.09-1.029,2.2-2.034,3.3-3.057a.719.719,0,0,0,.257-.423c.017-1.8.011-3.6.011-5.521" transform="translate(0 0)" fill="#5d00ff"/>
    <path id="Path_1440" data-name="Path 1440" d="M143.3,97.894c-.606,0-1.211.011-1.817,0a.985.985,0,0,1-1.049-1,1,1,0,0,1,1.077-1.026q1.817-.016,3.634,0a1,1,0,0,1,1.072,1.03.983.983,0,0,1-1.052.995c-.621.014-1.243,0-1.865,0" transform="translate(-122.486 -83.607)" fill="#5d00ff"/>
    <path id="Path_1441" data-name="Path 1441" d="M216.936,97.895c-.606,0-1.212.01-1.818,0a1.014,1.014,0,1,1-.013-2.024q1.841-.018,3.683,0a1.012,1.012,0,1,1,.013,2.022c-.621.016-1.243,0-1.865,0" transform="translate(-186.679 -83.607)" fill="#5d00ff"/>
  </g>
</svg>
