<svg xmlns="http://www.w3.org/2000/svg" width="27.022" height="58"><defs><clipPath id="a"><path data-name="Rectangle 534" fill="#fff" d="M0 0h27.022v58H0z"/></clipPath></defs><g data-name="Group 445"><g data-name="Group 444" clip-path="url(#a)" fill="#fff" opacity=".4"><path data-name="Path 519" d="M27.015 19.44c0 3.118.013 6.236 0 9.354a9.828 9.828 0 01-8.259 9.892 4.725 4.725 0 01-.922.1 91.294 91.294 0 01-9.853-.223 9.513 9.513 0 01-7.956-9.325C-.017 22.867.005 16.5.012 10.123A9.759 9.759 0 019.344.108a71.392 71.392 0 019 .073 9.646 9.646 0 018.633 9.092c.1 3.386.019 6.778.019 10.167h.022m-1.956.011c0-3.137.026-6.274-.006-9.411a7.894 7.894 0 00-8.09-8.019q-3.485-.016-6.971 0a7.888 7.888 0 00-8.014 8.031q-.02 9.382 0 18.764a7.907 7.907 0 008.057 8.053c2.324.006 4.647.011 6.971-.006a8.514 8.514 0 001.671-.164 7.861 7.861 0 006.378-7.9c.023-3.117 0-6.235 0-9.353"/><path data-name="Path 520" d="M12.534 54.813v-.793-9.814a3.651 3.651 0 01.032-.694.894.894 0 01.946-.773.882.882 0 01.922.73 3.509 3.509 0 01.049.75v10.583c.261-.22.416-.347.567-.479 1.18-1.032 2.355-2.07 3.539-3.1.576-.5 1.122-.506 1.531-.04a1.014 1.014 0 01-.236 1.518q-2.827 2.5-5.661 4.992a1.008 1.008 0 01-1.457-.017q-2.809-2.477-5.614-4.957c-.571-.505-.671-1.042-.286-1.509.408-.5.971-.494 1.572.027 1.1.95 2.185 1.911 3.278 2.867l.816.705"/><path data-name="Path 521" d="M12.536 12.879c0-.774-.011-1.548 0-2.321a.974.974 0 111.938-.028q.027 2.379 0 4.759a.944.944 0 01-.986 1.047c-.586-.007-.941-.392-.953-1.076-.014-.793 0-1.586 0-2.379"/></g></g></svg>