<svg data-name="Group 1548" xmlns="http://www.w3.org/2000/svg" width="31.333" height="33.12"><defs><clipPath id="a"><path data-name="Rectangle 791" fill="#fff" d="M0 0h31.333v33.12H0z"/></clipPath></defs><g data-name="Group 1547" clip-path="url(#a)" fill="#fff"><path data-name="Path 611" d="M14.889 33.121c-.672-.085-1.349-.138-2.014-.26A15.408 15.408 0 013.408 27.2 15.2 15.2 0 01.14 19.543 15.689 15.689 0 0111.012 2.467a14.942 14.942 0 013.937-.679c.2-.007.4-.021.624-.033V.662a2.086 2.086 0 01.035-.45.229.229 0 01.366-.17 1.964 1.964 0 01.325.216q1.316 1.072 2.628 2.15c.48.395.486.778.017 1.178q-1.292 1.1-2.59 2.2a.488.488 0 01-.126.1c-.144.052-.327.166-.428.117s-.173-.261-.181-.406c-.023-.418-.008-.839-.008-1.327-.614.052-1.2.064-1.781.156a12.958 12.958 0 00-9.759 6.845 12.513 12.513 0 00-1.432 7.873 12.821 12.821 0 005.264 8.9 12.781 12.781 0 008.784 2.512 12.9 12.9 0 005.342-1.593 1.292 1.292 0 011.487.018 1.239 1.239 0 01-.167 2.121 26.337 26.337 0 01-2.772 1.224 13.1 13.1 0 01-3.693.744 1.644 1.644 0 00-.249.055z"/><path data-name="Path 612" d="M8.759 21.97c.21-.615.436-1.23.629-1.854a2.378 2.378 0 011.977-1.765c.888-.166 1.766-.388 2.648-.589a.629.629 0 00.338-.992c-.7-.838-1.385-1.68-2.088-2.512a1.6 1.6 0 01-.305-1.632c.275-.839.557-1.674.836-2.512.023-.07.037-.143.058-.228-.1-.042-.187-.08-.275-.114a.3.3 0 01-.2-.416c.129-.4.267-.8.407-1.192.1-.28.306-.253.53-.177q1.757.6 3.515 1.195l6.664 2.265c.434.148.472.225.325.662-.082.245-.167.489-.251.733-.194.569-.194.569-.807.421l-.539 1.573c-.084.244-.167.489-.248.734a2.308 2.308 0 01-1.867 1.634c-.907.185-1.808.4-2.712.6a.626.626 0 00-.343.989c.661.8 1.307 1.606 1.991 2.381a1.824 1.824 0 01.359 1.951c-.253.731-.5 1.465-.749 2.217.09.038.165.073.243.1a.33.33 0 01.225.482c-.12.334-.23.672-.346 1.008-.135.392-.223.436-.62.3l-8.1-2.755c-.7-.239-1.407-.477-2.108-.719-.342-.118-.39-.215-.28-.554.086-.266.18-.53.271-.794.2-.584.2-.584.817-.442m.965.358l7.946 2.7c.257-.767.494-1.5.754-2.232a.918.918 0 00-.205-1c-.748-.863-1.462-1.756-2.206-2.623a.763.763 0 01-.151-.86 8.422 8.422 0 00.3-.885.707.707 0 01.6-.545c1.063-.226 2.122-.475 3.184-.7a1.287 1.287 0 001.032-.91c.2-.613.417-1.222.624-1.833.057-.169.107-.341.166-.531l-7.925-2.694c-.3.9-.587 1.767-.884 2.631a.834.834 0 00.186.89c.764.892 1.506 1.8 2.266 2.7a.7.7 0 01.144.772 9.378 9.378 0 00-.307.918.754.754 0 01-.652.579c-1.064.221-2.123.469-3.184.7a1.119 1.119 0 00-.879.64c-.29.739-.537 1.494-.817 2.286"/><path data-name="Path 613" d="M24.718 27.523a2.412 2.412 0 011.78-1.895 1.192 1.192 0 011.138.6 1.126 1.126 0 01-.013 1.308 5.67 5.67 0 01-.889.975 1.143 1.143 0 01-1.3.145 1.238 1.238 0 01-.714-1.138"/><path data-name="Path 614" d="M27.502 23.37a3.568 3.568 0 01.725-1.576 1.243 1.243 0 012.07 1.229 6.536 6.536 0 01-.524 1.173 1.2 1.2 0 01-1.382.5 1.292 1.292 0 01-.89-1.328"/><path data-name="Path 615" d="M31.333 18.238c-.021.233-.032.47-.067.7a1.242 1.242 0 01-1.317 1.074 1.228 1.228 0 01-1.164-1.234 7.521 7.521 0 01.063-1.062 1.236 1.236 0 011.331-1.092 1.256 1.256 0 011.154 1.283v.326"/><path data-name="Path 616" d="M25.502 5.86a1.248 1.248 0 01-1.838 1.105 6.024 6.024 0 01-.976-.684 1.245 1.245 0 011.406-2.032 7.657 7.657 0 011.005.7 1.119 1.119 0 01.4.914"/><path data-name="Path 617" d="M25.877 8.76a1.278 1.278 0 01.786-1.241 1.206 1.206 0 011.361.3 6.571 6.571 0 01.728 1.022 1.207 1.207 0 01-.306 1.517 1.156 1.156 0 01-1.538.035 8.689 8.689 0 01-.974-1.344.628.628 0 01-.058-.29"/><path data-name="Path 618" d="M30.889 13.836a1.253 1.253 0 01-1.029 1.274 1.222 1.222 0 01-1.379-.761 7.164 7.164 0 01-.314-1.083 1.25 1.25 0 012.39-.693c.126.33.21.677.3 1.018a1.279 1.279 0 01.027.245"/></g></svg>