<svg xmlns="http://www.w3.org/2000/svg" width="15.699" height="20.459" viewBox="0 0 15.699 20.459">
  <g id="Group_407" data-name="Group 407" transform="translate(-9341 -1008.667)">
    <path id="Path_488" data-name="Path 488" d="M7.471,4.835V4.594q0-2.044,0-4.087c0-.388.112-.5.5-.5.951,0,1.9,0,2.854,0,.186,0,.351.028.436.22a.407.407,0,0,1-.13.471c-.191.206-.377.417-.581.645.2.219.386.434.579.646.124.135.222.274.138.469s-.262.225-.455.224c-.776,0-1.553,0-2.329,0H8.218V4.821a7.663,7.663,0,0,1,6.36,3.9,7.259,7.259,0,0,1,.992,5.218,7.7,7.7,0,0,1-7.847,6.514A7.7,7.7,0,0,1,.037,13.373a7.613,7.613,0,0,1,.737-4.1,7.849,7.849,0,0,1,6.7-4.436M11.28,6.467A2.75,2.75,0,0,1,8.568,9.582a2.618,2.618,0,0,1-1.994-.859A2.744,2.744,0,0,1,6.017,5.8,7.046,7.046,0,0,0,3.45,7.081c.013.042.022.078.034.112a2.717,2.717,0,0,1-2.367,3.7c-.159.015-.184.1-.209.212a7.182,7.182,0,0,0-.092,2.744,7.212,7.212,0,0,0,8.964,5.665,6.142,6.142,0,0,0,1.554-.68,2.763,2.763,0,0,1,3.308-4.2A7.016,7.016,0,0,0,11.28,6.467M7.754,5.545c-.127.009-.364.012-.6.049a.43.43,0,0,0-.269.16A1.931,1.931,0,0,0,6.6,7.167,1.973,1.973,0,0,0,9.088,8.742,1.953,1.953,0,0,0,10.46,6.214a.446.446,0,0,0-.235-.238,6.98,6.98,0,0,0-2.471-.431m4.225,12.877A7.125,7.125,0,0,0,14.4,15.371a1.906,1.906,0,0,0-2.435.479,1.931,1.931,0,0,0,.014,2.572M10.02.749H8.213v1.18h1.826c-.121-.194-.328-.382-.328-.569s.2-.4.309-.61M1.2,10.136A1.956,1.956,0,0,0,2.827,7.631,7.061,7.061,0,0,0,1.2,10.136" transform="translate(9341 1008.667)" fill="#fff"/>
    <path id="Path_489" data-name="Path 489" d="M122.3,200.082a1.182,1.182,0,0,1,1.173,1.181,1.175,1.175,0,1,1-2.349,0,1.185,1.185,0,0,1,1.176-1.18m.448,1.182a.449.449,0,0,0-.9,0,.449.449,0,1,0,.9,0" transform="translate(9227.262 820.791)" fill="#fff"/>
    <path id="Path_490" data-name="Path 490" d="M50.67,237.23a1.169,1.169,0,1,1-1.157-1.192,1.168,1.168,0,0,1,1.157,1.192m-1.611-.027a.443.443,0,1,0,.885.033.443.443,0,1,0-.885-.033" transform="translate(9295.617 787.027)" fill="#fff"/>
    <path id="Path_491" data-name="Path 491" d="M191.018,174.773a.416.416,0,0,1-.4-.416.4.4,0,1,1,.806.012.421.421,0,0,1-.41.4" transform="translate(9162.007 845.321)" fill="#fff"/>
    <path id="Path_492" data-name="Path 492" d="M83.335,200.187a.421.421,0,0,1-.41-.4.4.4,0,0,1,.809-.011.419.419,0,0,1-.4.415" transform="translate(9263.134 821.456)" fill="#fff"/>
    <path id="Path_493" data-name="Path 493" d="M122.207,278.8a.421.421,0,0,1-.387-.426.4.4,0,0,1,.808.034.42.42,0,0,1-.421.392" transform="translate(9226.612 747.642)" fill="#fff"/>
  </g>
</svg>
