<svg xmlns="http://www.w3.org/2000/svg" width="54.09" height="50.981"><defs><linearGradient id="a" x1=".5" x2=".5" y2="1" gradientUnits="objectBoundingBox"><stop offset="0" stop-color="#fffac9"/><stop offset="1" stop-color="#e6a115"/></linearGradient><clipPath id="b"><path data-name="Rectangle 194" fill="url(#a)" d="M0 0h44.741v40.207H0z"/></clipPath></defs><g data-name="Group 656"><g data-name="Group 60" clip-path="url(#b)" fill="url(#a)" transform="rotate(-16 43.873 6.166)"><path data-name="Path 161" d="M0 11.206c1.324.518 2.652 1.032 3.976 1.554.846.332 1.693.675 2.583 1.032-1.97 1.415-2.78 3.236-1.959 5.53a4.258 4.258 0 004 2.951 4.383 4.383 0 004.137-2.284 2.153 2.153 0 01-1.415-1.4 3.023 3.023 0 01-.022-1.364 2.13 2.13 0 012.072-1.572 2.221 2.221 0 012.156 1.474c.368 1.047.015 1.911-1.153 2.812a4.4 4.4 0 005.37-2.294 4.62 4.62 0 00-3.005-6.457c1.86-2.222 3.7-4.425 5.592-6.683a2.433 2.433 0 01-1.988-1.342A2.224 2.224 0 0122.606.007a2.209 2.209 0 011.988 2.039c.12 1.193-.616 2.043-2.178 2.466 1.868 2.232 3.713 4.447 5.6 6.7a4.6 4.6 0 00-3.225 2.937 4.365 4.365 0 00.142 3.36 4.434 4.434 0 005.421 2.444c-1.266-1.123-1.554-1.955-1.069-3.009a2.232 2.232 0 112.783 3.031 4.279 4.279 0 003.575 2.32 4.556 4.556 0 004.425-2.75 4.442 4.442 0 00.142-3.2 4.749 4.749 0 00-2.054-2.535c2.218-.89 4.363-1.747 6.584-2.637-1.5 6.752-2.984 13.417-4.469 20.107H4.469q-.531-2.382-1.058-4.764-1.658-7.453-3.32-14.905a1.37 1.37 0 00-.091-.23v-.175m18.02 13.318c1.481 1.488 2.955 2.966 4.392 4.414l4.308-4.308c-1.463-1.463-2.947-2.951-4.4-4.4-1.43 1.423-2.9 2.893-4.3 4.294"/><path data-name="Rectangle 193" d="M4.892 33.648l35.5 4.359-.535 4.363-35.5-4.359z"/></g></g></svg>