<svg data-name="Group 4188" xmlns="http://www.w3.org/2000/svg" width="40.861" height="49"><defs><clipPath id="a"><path data-name="Rectangle 1753" fill="#5d00ff" d="M0 0h40.861v49H0z"/></clipPath></defs><g data-name="Group 4187" clip-path="url(#a)" fill="#5d00ff"><path data-name="Path 1439" d="M2.553 49c-.145-.056-.289-.117-.437-.168a2.951 2.951 0 01-2.06-2.768C.043 41.2-.092 36.33.111 31.475A14.636 14.636 0 016.2 20.2q1.8-1.389 3.624-2.74a.909.909 0 00.418-.826q-.022-5.645-.007-11.289a5.076 5.076 0 013.5-5.051 6.145 6.145 0 011.688-.273c1.243-.039 2.488.007 3.731-.02a1.284 1.284 0 011.315.815A5.358 5.358 0 0025 4.044a5.392 5.392 0 005.412-2.785A4.139 4.139 0 0130.8.551c.206-.219.494-.506.749-.509a42 42 0 015.061.08 4.93 4.93 0 014.234 4.722c.008.191.013.383.013.574v27.984a4.968 4.968 0 01-3 4.9 6.418 6.418 0 01-2.266.462c-1.224.073-2.455 0-3.683.027a1.242 1.242 0 01-1.27-.8 5.492 5.492 0 00-4.189-3.205c-.277-.049-.563-.045-.907-.071v.662c-.016 1.419.065 2.847-.072 4.254a6.055 6.055 0 01-5.024 5.224v.929a3.05 3.05 0 01-2.411 3.14 1.193 1.193 0 00-.173.077zm14.5-12.248c.556 0 1.033.02 1.507-.012a.589.589 0 00.381-.266 7.627 7.627 0 0113.216 0 .674.674 0 00.48.267c.956.025 1.913.013 2.87.012a3.078 3.078 0 003.312-3.313V14.289c-.368 0-.669.009-.969 0a.989.989 0 01-1.05-.989 1 1 0 011.068-1.036c.312-.009.624 0 .959 0v-7a3.071 3.071 0 00-3.177-3.213c-.989-.012-1.978.008-2.966-.009a.567.567 0 00-.561.331 7.6 7.6 0 01-13.139-.015.57.57 0 00-.569-.316c-.941.014-1.882 0-2.823.006a3.068 3.068 0 00-3.3 3.28c-.006 2.153 0 4.305 0 6.458 0 .152.017.3.027.477.35 0 .652-.009.953 0a1.027 1.027 0 011.049 1.017 1.015 1.015 0 01-1.051 1.009c-.313.012-.627 0-.937 0v9.171c.171-.152.29-.254.405-.361l5.1-4.7a2.057 2.057 0 013.218.184 5.862 5.862 0 01-.215 7.99 149.216 149.216 0 01-2.98 2.974.544.544 0 00-.161.661 7.712 7.712 0 01.38 3.3 8.719 8.719 0 01-1.026 3.248m-6.823-17.05c-1.007.761-1.929 1.437-2.83 2.141a13.018 13.018 0 00-5.307 10.447c-.075 4.5-.02 8.993-.017 13.49a1.054 1.054 0 001.181 1.181c.622.01 1.244 0 1.866 0h12.009c.9 0 1.275-.381 1.283-1.284V44.15c.005-.907.318-1.233 1.224-1.279a3.918 3.918 0 003.76-3.335 39.88 39.88 0 00.032-4.393c-.077.029-.18.061-.276.107a5.289 5.289 0 00-2.617 2.616 1.421 1.421 0 01-1.534.932c-1-.048-2.009 0-3.014-.019a.868.868 0 00-.812.371c-.3.411-.645.79-.975 1.179a1.031 1.031 0 11-1.572-1.3c.7-.85 1.429-1.675 2.1-2.543a5.859 5.859 0 00.816-6.207 1.15 1.15 0 01.315-1.614l3.45-3.451A3.762 3.762 0 0020.447 22a3.537 3.537 0 00-1.084-2.215c-.206.185-.374.332-.538.483l-8.088 7.459c-.95.875-1.9 1.754-2.856 2.618a.967.967 0 01-1.232.13A.917.917 0 016.2 29.4a1.655 1.655 0 01.461-.7c1.09-1.029 2.2-2.034 3.3-3.057a.719.719 0 00.257-.423c.017-1.8.011-3.6.011-5.521"/><path data-name="Path 1440" d="M20.814 14.287c-.606 0-1.211.011-1.817 0a.985.985 0 01-1.049-1 1 1 0 011.077-1.026q1.817-.016 3.634 0a1 1 0 011.072 1.03.983.983 0 01-1.052.995c-.621.014-1.243 0-1.865 0"/><path data-name="Path 1441" d="M30.257 14.288c-.606 0-1.212.01-1.818 0a1.014 1.014 0 11-.013-2.024q1.841-.018 3.683 0a1.012 1.012 0 11.013 2.022c-.621.016-1.243 0-1.865 0"/></g></svg>