<svg xmlns="http://www.w3.org/2000/svg" width="22.767" height="22.771" viewBox="0 0 22.767 22.771">
  <g id="Group_409" data-name="Group 409" transform="translate(0 0)">
    <path id="Path_494" data-name="Path 494" d="M352.627,152.705v-1.423c.014-.079.03-.158.041-.238.053-.388.082-.781.159-1.165a11.178,11.178,0,0,1,4.75-7.259,11.369,11.369,0,0,1,14.935,16.927,11.2,11.2,0,0,1-6.519,3.652c-.421.076-.847.119-1.271.177H363.3c-.278-.034-.556-.064-.833-.1a11.431,11.431,0,0,1-9.662-9.3c-.076-.421-.119-.848-.178-1.272m21.345-.718a9.961,9.961,0,1,0-9.965,9.966,9.975,9.975,0,0,0,9.965-9.966" transform="translate(-352.627 -140.604)" fill="#2d2d2d"/>
    <path id="Path_495" data-name="Path 495" d="M477.391,250.945v.239q0,3.188,0,6.377a1.3,1.3,0,0,1-.03.329.7.7,0,0,1-.755.521.72.72,0,0,1-.634-.667c0-.074,0-.148,0-.222v-6.63c-.087.083-.143.134-.2.188-.707.707-1.411,1.417-2.123,2.119a.707.707,0,0,1-1.214-.3.67.67,0,0,1,.184-.674q1.773-1.778,3.55-3.552l.016-.016a.691.691,0,0,1,.983,0q1.8,1.784,3.582,3.582a.693.693,0,0,1-.023,1,.7.7,0,0,1-1-.018c-.711-.7-1.416-1.412-2.122-2.121a1.833,1.833,0,0,1-.148-.193l-.068.041" transform="translate(-465.294 -242.045)" fill="#2d2d2d"/>
  </g>
</svg>
