<svg xmlns="http://www.w3.org/2000/svg" xmlns:xlink="http://www.w3.org/1999/xlink" width="27.022" height="58" viewBox="0 0 27.022 58">
  <defs>
    <clipPath id="clip-path">
      <rect id="Rectangle_534" data-name="Rectangle 534" width="27.022" height="58" fill="#fff"/>
    </clipPath>
  </defs>
  <g id="Group_445" data-name="Group 445" opacity="0.4">
    <g id="Group_444" data-name="Group 444" clip-path="url(#clip-path)">
      <path id="Path_519" data-name="Path 519" d="M27.015,19.44c0,3.118.013,6.236,0,9.354a9.828,9.828,0,0,1-8.259,9.892,4.725,4.725,0,0,1-.922.1,91.294,91.294,0,0,1-9.853-.223A9.513,9.513,0,0,1,.025,29.238C-.017,22.867.005,16.5.012,10.123A9.759,9.759,0,0,1,9.344.108a71.392,71.392,0,0,1,9,.073,9.646,9.646,0,0,1,8.633,9.092c.1,3.386.019,6.778.019,10.167h.022m-1.956.011c0-3.137.026-6.274-.006-9.411a7.894,7.894,0,0,0-8.09-8.019q-3.485-.016-6.971,0a7.888,7.888,0,0,0-8.014,8.031q-.02,9.382,0,18.764a7.907,7.907,0,0,0,8.057,8.053c2.324.006,4.647.011,6.971-.006a8.514,8.514,0,0,0,1.671-.164,7.861,7.861,0,0,0,6.378-7.9c.023-3.117,0-6.235,0-9.353" transform="translate(0 0)" fill="#fff"/>
      <path id="Path_520" data-name="Path 520" d="M48.65,287.312v-.793q0-4.907,0-9.814a3.651,3.651,0,0,1,.032-.694.894.894,0,0,1,.946-.773.882.882,0,0,1,.922.73,3.509,3.509,0,0,1,.049.75q0,4.907,0,9.814v.769c.261-.22.416-.347.567-.479,1.18-1.032,2.355-2.07,3.539-3.1.576-.5,1.122-.506,1.531-.04A1.014,1.014,0,0,1,56,285.2q-2.827,2.5-5.661,4.992a1.008,1.008,0,0,1-1.457-.017q-2.809-2.477-5.614-4.957c-.571-.505-.671-1.042-.286-1.509.408-.5.971-.494,1.572.027,1.1.95,2.185,1.911,3.278,2.867.231.2.464.4.816.705" transform="translate(-36.116 -232.499)" fill="#fff"/>
      <path id="Path_521" data-name="Path 521" d="M80.71,64.385c0-.774-.011-1.548,0-2.321a.974.974,0,1,1,1.938-.028q.027,2.379,0,4.759a.944.944,0,0,1-.986,1.047c-.586-.007-.941-.392-.953-1.076-.014-.793,0-1.586,0-2.379" transform="translate(-68.174 -51.506)" fill="#fff"/>
    </g>
  </g>
</svg>
