<svg data-name="Group 1917" xmlns="http://www.w3.org/2000/svg" width="22.044" height="25.201"><defs><clipPath id="a"><path data-name="Rectangle 948" fill="#fff" d="M0 0h22.044v25.201H0z"/></clipPath></defs><g data-name="Group 1916" clip-path="url(#a)" fill="#fff"><path data-name="Path 760" d="M15.6 21.034c.344.9.674 1.772 1.016 2.639a.283.283 0 00.214.133c.421.013.843 0 1.264.007a.7.7 0 11-.006 1.387H3.958a.7.7 0 11-.008-1.387c.421 0 .843 0 1.264-.006.074 0 .191-.045.212-.1.347-.881.683-1.768 1.027-2.67a10.95 10.95 0 01-5.975-6.886 10.661 10.661 0 01.2-6.887 11 11 0 0120.983.937 10.706 10.706 0 01-.689 7.512 10.92 10.92 0 01-5.372 5.321m-.5-1.319a9.636 9.636 0 10-8.141-.019c.018-.036.039-.071.053-.109Q8.2 16.466 9.4 13.346a.213.213 0 00-.086-.287 2.6 2.6 0 01-.953-1.841 2.675 2.675 0 114.407 1.82.272.272 0 00-.083.373q.733 1.892 1.454 3.789l.96 2.514m-1.309.517a.47.47 0 00-.008-.06q-1.212-3.17-2.418-6.335c-.1-.263-.309-.1-.463-.143-.139-.04-.18.059-.221.167q-.792 2.081-1.589 4.161l-.843 2.2a9.576 9.576 0 005.537.006m1.384 3.57l-.869-2.266a11.058 11.058 0 01-6.55 0l-.867 2.27zm-2.856-12.783a1.288 1.288 0 10-1.292 1.287 1.291 1.291 0 001.292-1.291"/><path data-name="Path 761" d="M13.105 4.868a2.082 2.082 0 11-2.079-2.085 2.085 2.085 0 012.079 2.085m-2.077-.7a.693.693 0 10.688.7.7.7 0 00-.688-.7"/><path data-name="Path 762" d="M5.709 12.008a2.083 2.083 0 11-2.087 2.073 2.09 2.09 0 012.087-2.073m-.022 2.776a.694.694 0 00.03-1.387.694.694 0 00-.025 1.387"/><path data-name="Path 763" d="M5.695 5.858a2.083 2.083 0 11-2.071 2.063 2.088 2.088 0 012.071-2.063M5.011 7.92a.685.685 0 00.666.714.693.693 0 00.043-1.386.689.689 0 00-.709.672"/><path data-name="Path 764" d="M18.427 7.931a2.08 2.08 0 11-2.085-2.073 2.077 2.077 0 012.085 2.073m-1.389.006a.686.686 0 00-.691-.69.693.693 0 00.007 1.386.686.686 0 00.684-.7"/><path data-name="Path 765" d="M18.428 14.082a2.08 2.08 0 11-2.085-2.074 2.077 2.077 0 012.085 2.074m-1.389.015a.686.686 0 00-.681-.7.693.693 0 00-.013 1.386.686.686 0 00.694-.687"/></g></svg>