<svg id="Group_1917" data-name="Group 1917" xmlns="http://www.w3.org/2000/svg" xmlns:xlink="http://www.w3.org/1999/xlink" width="22.044" height="25.201" viewBox="0 0 22.044 25.201">
  <defs>
    <clipPath id="clip-path">
      <rect id="Rectangle_948" data-name="Rectangle 948" width="22.044" height="25.201" fill="#fff"/>
    </clipPath>
  </defs>
  <g id="Group_1916" data-name="Group 1916" clip-path="url(#clip-path)">
    <path id="Path_760" data-name="Path 760" d="M15.6,21.033c.344.9.674,1.772,1.016,2.639a.283.283,0,0,0,.214.133c.421.013.843,0,1.264.007a.7.7,0,1,1-.006,1.387q-7.065,0-14.13,0a.7.7,0,1,1-.008-1.387c.421,0,.843,0,1.264-.006.074,0,.191-.045.212-.1.347-.881.683-1.768,1.027-2.67A10.95,10.95,0,0,1,.478,14.15a10.661,10.661,0,0,1,.2-6.887A11,11,0,0,1,21.661,8.2a10.706,10.706,0,0,1-.689,7.512A10.92,10.92,0,0,1,15.6,21.033m-.5-1.319a9.636,9.636,0,1,0-8.141-.019c.018-.036.039-.071.053-.109Q8.2,16.465,9.4,13.345a.213.213,0,0,0-.086-.287,2.6,2.6,0,0,1-.953-1.841,2.675,2.675,0,1,1,4.407,1.82.272.272,0,0,0-.083.373q.733,1.892,1.454,3.789c.318.831.635,1.663.96,2.514m-1.309.517a.47.47,0,0,0-.008-.06Q12.57,17,11.364,13.835c-.1-.263-.309-.1-.463-.143-.139-.04-.18.059-.221.167Q9.888,15.94,9.091,18.02l-.843,2.2a9.576,9.576,0,0,0,5.537.006m1.384,3.57L14.3,21.53a11.058,11.058,0,0,1-6.55,0L6.883,23.8ZM12.313,11.013A1.288,1.288,0,1,0,11.021,12.3a1.291,1.291,0,0,0,1.292-1.291" transform="translate(0 0.001)" fill="#fff"/>
    <path id="Path_761" data-name="Path 761" d="M139.2,44.108a2.082,2.082,0,1,1-2.079-2.085,2.085,2.085,0,0,1,2.079,2.085m-2.077-.7a.693.693,0,1,0,.688.7.7.7,0,0,0-.688-.7" transform="translate(-126.095 -39.24)" fill="#fff"/>
    <path id="Path_762" data-name="Path 762" d="M56.792,181.311a2.083,2.083,0,1,1-2.087,2.073,2.09,2.09,0,0,1,2.087-2.073m-.022,2.776A.693.693,0,0,0,56.8,182.7a.694.694,0,0,0-.025,1.387" transform="translate(-51.083 -169.303)" fill="#fff"/>
    <path id="Path_763" data-name="Path 763" d="M56.784,88.451a2.083,2.083,0,1,1-2.071,2.063,2.088,2.088,0,0,1,2.071-2.063M56.1,90.513a.685.685,0,0,0,.666.714.693.693,0,0,0,.043-1.386.689.689,0,0,0-.709.672" transform="translate(-51.089 -82.593)" fill="#fff"/>
    <path id="Path_764" data-name="Path 764" d="M219.578,90.525a2.08,2.08,0,1,1-2.085-2.073,2.077,2.077,0,0,1,2.085,2.073m-1.389.006a.686.686,0,0,0-.691-.69.693.693,0,0,0,.007,1.386.686.686,0,0,0,.684-.7" transform="translate(-201.151 -82.594)" fill="#fff"/>
    <path id="Path_765" data-name="Path 765" d="M219.579,183.385a2.08,2.08,0,1,1-2.085-2.074,2.077,2.077,0,0,1,2.085,2.074m-1.389.015a.686.686,0,0,0-.681-.7.693.693,0,0,0-.013,1.386.686.686,0,0,0,.694-.687" transform="translate(-201.151 -169.303)" fill="#fff"/>
  </g>
</svg>
