<svg xmlns="http://www.w3.org/2000/svg" width="49.491" height="46.646"><defs><linearGradient id="a" x1=".5" x2=".5" y2="1" gradientUnits="objectBoundingBox"><stop offset="0" stop-color="#fff"/><stop offset="1" stop-color="gray"/></linearGradient><clipPath id="b"><path data-name="Rectangle 194" fill="url(#a)" d="M0 0h40.937v36.788H0z"/></clipPath></defs><g data-name="Group 661"><g data-name="Group 60" clip-path="url(#b)" fill="url(#a)" transform="rotate(-16 40.145 5.642)"><path data-name="Path 161" d="M0 10.253c1.212.474 2.426.945 3.638 1.422.774.3 1.549.617 2.363.945-1.8 1.3-2.543 2.961-1.792 5.06a3.9 3.9 0 003.661 2.7 4.01 4.01 0 003.785-2.089 1.97 1.97 0 01-1.3-1.285 2.766 2.766 0 01-.02-1.248 1.949 1.949 0 011.9-1.439 2.032 2.032 0 011.973 1.348c.337.958.013 1.749-1.055 2.573a4.024 4.024 0 004.913-2.1 4.227 4.227 0 00-2.75-5.9l5.117-6.115a2.226 2.226 0 01-1.819-1.227 2.035 2.035 0 012.07-2.892A2.021 2.021 0 0122.5 1.872c.11 1.091-.564 1.869-1.993 2.256 1.709 2.043 3.4 4.069 5.123 6.135a4.208 4.208 0 00-2.951 2.687 3.994 3.994 0 00.13 3.074 4.057 4.057 0 004.96 2.236c-1.158-1.031-1.425-1.789-.978-2.757a2.043 2.043 0 112.547 2.774 3.916 3.916 0 003.274 2.121 4.169 4.169 0 004.049-2.517 4.064 4.064 0 00.13-2.927 4.346 4.346 0 00-1.879-2.32c2.029-.814 3.992-1.6 6.025-2.413a30331.24 30331.24 0 00-4.089 18.4H4.089q-.486-2.183-.968-4.359Q1.6 17.442.083 10.623a1.253 1.253 0 00-.083-.21v-.16m16.488 12.186l4.019 4.039 3.942-3.942c-1.338-1.338-2.7-2.7-4.022-4.025-1.308 1.3-2.653 2.647-3.938 3.928"/><path data-name="Rectangle 193" d="M4.109 32.766h32.726v4.022H4.109z"/></g></g></svg>