<svg xmlns="http://www.w3.org/2000/svg" xmlns:xlink="http://www.w3.org/1999/xlink" width="54.09" height="50.981" viewBox="0 0 54.09 50.981">
  <defs>
    <linearGradient id="linear-gradient" x1="0.5" x2="0.5" y2="1" gradientUnits="objectBoundingBox">
      <stop offset="0" stop-color="#fffac9"/>
      <stop offset="1" stop-color="#e6a115"/>
    </linearGradient>
    <clipPath id="clip-path">
      <rect id="Rectangle_194" data-name="Rectangle 194" width="44.741" height="40.207" fill="url(#linear-gradient)"/>
    </clipPath>
  </defs>
  <g id="Group_656" data-name="Group 656" transform="translate(0 12.332) rotate(-16)">
    <g id="Group_60" data-name="Group 60" clip-path="url(#clip-path)">
      <path id="Path_161" data-name="Path 161" d="M0,11.208c1.324.518,2.652,1.032,3.976,1.554.846.332,1.693.675,2.583,1.032-1.97,1.415-2.78,3.236-1.959,5.53a4.258,4.258,0,0,0,4,2.951,4.383,4.383,0,0,0,4.137-2.284,2.153,2.153,0,0,1-1.415-1.4,3.023,3.023,0,0,1-.022-1.364,2.13,2.13,0,0,1,2.072-1.572,2.221,2.221,0,0,1,2.156,1.474c.368,1.047.015,1.911-1.153,2.812a4.4,4.4,0,0,0,5.37-2.294A4.62,4.62,0,0,0,16.74,11.19c1.86-2.222,3.7-4.425,5.592-6.683a2.433,2.433,0,0,1-1.988-1.342A2.224,2.224,0,0,1,22.606.009a2.209,2.209,0,0,1,1.988,2.039c.12,1.193-.616,2.043-2.178,2.466,1.868,2.232,3.713,4.447,5.6,6.7a4.6,4.6,0,0,0-3.225,2.937,4.365,4.365,0,0,0,.142,3.36,4.434,4.434,0,0,0,5.421,2.444C29.088,18.832,28.8,18,29.285,16.946a2.232,2.232,0,1,1,2.783,3.031,4.279,4.279,0,0,0,3.575,2.32,4.556,4.556,0,0,0,4.425-2.75,4.442,4.442,0,0,0,.142-3.2,4.749,4.749,0,0,0-2.054-2.535c2.218-.89,4.363-1.747,6.584-2.637-1.5,6.752-2.984,13.417-4.469,20.107H4.469Q3.938,28.9,3.411,26.518,1.753,19.065.091,11.613A1.37,1.37,0,0,0,0,11.383v-.175M18.02,24.526c1.481,1.488,2.955,2.966,4.392,4.414l4.308-4.308c-1.463-1.463-2.947-2.951-4.4-4.4-1.43,1.423-2.9,2.893-4.3,4.294" transform="translate(0 -0.002)" fill="url(#linear-gradient)"/>
      <rect id="Rectangle_193" data-name="Rectangle 193" width="35.767" height="4.396" transform="translate(4.892 33.648) rotate(7)" fill="url(#linear-gradient)"/>
    </g>
  </g>
</svg>
