<svg xmlns="http://www.w3.org/2000/svg" xmlns:xlink="http://www.w3.org/1999/xlink" width="38.992" height="36.75" viewBox="0 0 38.992 36.75">
  <defs>
    <linearGradient id="linear-gradient" x1="0.5" x2="0.5" y2="1" gradientUnits="objectBoundingBox">
      <stop offset="0" stop-color="#ffdcb5"/>
      <stop offset="1" stop-color="#8f4605"/>
    </linearGradient>
    <clipPath id="clip-path">
      <rect id="Rectangle_194" data-name="Rectangle 194" width="32.252" height="28.983" fill="url(#linear-gradient)"/>
    </clipPath>
  </defs>
  <g id="Group_663" data-name="Group 663" transform="translate(0 8.89) rotate(-16)">
    <g id="Group_60" data-name="Group 60" clip-path="url(#clip-path)">
      <path id="Path_161" data-name="Path 161" d="M0,8.079c.955.373,1.912.744,2.866,1.12.61.239,1.22.486,1.862.744A3.223,3.223,0,0,0,3.316,13.93,3.07,3.07,0,0,0,6.2,16.058a3.16,3.16,0,0,0,2.982-1.646A1.552,1.552,0,0,1,8.162,13.4a2.179,2.179,0,0,1-.016-.983A1.535,1.535,0,0,1,9.64,11.282a1.6,1.6,0,0,1,1.554,1.062c.266.755.011,1.378-.831,2.027a3.171,3.171,0,0,0,3.871-1.654,3.33,3.33,0,0,0-2.167-4.652c1.341-1.6,2.669-3.19,4.031-4.817a1.754,1.754,0,0,1-1.433-.968A1.6,1.6,0,0,1,16.3.006a1.592,1.592,0,0,1,1.433,1.47c.087.86-.444,1.473-1.57,1.778,1.346,1.609,2.677,3.205,4.036,4.833A3.315,3.315,0,0,0,17.871,10.2a3.147,3.147,0,0,0,.1,2.422,3.2,3.2,0,0,0,3.908,1.762c-.912-.813-1.123-1.409-.77-2.172A1.609,1.609,0,1,1,23.117,14.4a3.085,3.085,0,0,0,2.577,1.672,3.284,3.284,0,0,0,3.19-1.983,3.2,3.2,0,0,0,.1-2.306,3.424,3.424,0,0,0-1.48-1.828c1.6-.642,3.145-1.26,4.746-1.9-1.083,4.867-2.151,9.672-3.221,14.494H3.221q-.383-1.72-.763-3.434Q1.264,13.743.066,8.371A.987.987,0,0,0,0,8.206V8.079m12.99,9.6c1.068,1.073,2.13,2.138,3.166,3.182l3.106-3.106-3.169-3.171c-1.031,1.026-2.091,2.085-3.1,3.1" transform="translate(0 -0.001)" fill="url(#linear-gradient)"/>
      <rect id="Rectangle_193" data-name="Rectangle 193" width="25.783" height="3.169" transform="translate(3.237 25.815)" fill="url(#linear-gradient)"/>
    </g>
  </g>
</svg>
