<svg xmlns="http://www.w3.org/2000/svg" width="843.293" height="56.714"><g data-name="Group 4094"><g data-name="Group 4024" fill="#231fb1"><path data-name="Union 79" d="M780.443 44.91l19.618-19.619h19.73L800.172 44.91zm-26.889 0l19.618-19.619h19.725L773.278 44.91zm-26.889 0l19.618-19.619h19.725L746.389 44.91zm-170.874 0l15.9-19.619h167.981L720.053 44.91z" stroke="rgba(0,0,0,0)" stroke-miterlimit="10"/><path data-name="Union 80" d="M125.976 44.91l-19.619-19.619h167.981l15.9 19.619zm-26.331 0L80.022 25.291h19.729l19.618 19.619zm-26.893 0L53.137 25.291h19.725L92.48 44.91zm-26.885 0L26.248 25.291h19.725L65.591 44.91z" stroke="rgba(0,0,0,0)" stroke-miterlimit="10"/><text data-name="atom boyz" transform="translate(350.985 41.547)" font-size="22" font-family="Poppins-ExtraBoldItalic, Poppins" font-weight="800" font-style="italic" letter-spacing=".062em"><tspan x="0" y="0">ATOM BOYZ</tspan></text></g><path data-name="Path 1398" d="M842.235 1.381l-17.25 17.166h-255l-31 36.667h-232l-28-36.667h-258l-20-17.416" fill="none" stroke="#231fb1" stroke-width="3"/></g></svg>