<svg xmlns="http://www.w3.org/2000/svg" width="1085.399" height="591.36"><g data-name="Group 4360"><g data-name="Group 4324"><g data-name="Group 2368"><g data-name="Group 2366"><g data-name="Group 2361"><g data-name="Group 2343" fill="#231fb1" stroke="rgba(0,0,0,0)" stroke-miterlimit="10"><path data-name="Union 47" d="M542.103 19.139h-137.29l16.033-16.038h242.5l16.039 16.033zm186.629 0L712.699 3.101h16.123l16.034 16.033zm-21.974 0L690.724 3.101h16.122l16.033 16.033zm-21.975 0L668.746 3.101h16.117l16.043 16.033zm-301.49 0l16.034-16.038h16.119l-16.029 16.033zm-21.975 0l16.036-16.038h16.117l-16.033 16.033zm-21.972-.005l16.033-16.033h16.118l-16.034 16.033z"/><path data-name="Union 48" d="M1.64 467.97v-16.118l16.031 16.031v16.122zm0-21.973v-16.122l16.031 16.035v16.119zm0-21.972v-16.122l16.031 16.031v16.123zm0-21.528V281.252h16.031v137.283zm0-121.245V159.997l16.031-16.034v137.289zm0-142.775l16.031-16.031v16.119L1.64 154.597zm0-21.972l16.031-16.036v16.119L1.64 132.623zm0-21.977l16.031-16.031v16.119L1.64 110.646z"/><path data-name="Union 51" d="M970.313 585.364l23.523-23.525h23.652l-23.525 23.525zm-32.242 0l23.524-23.525h23.651l-23.525 23.525zm-32.242 0l23.524-23.525h23.652l-23.526 23.525zm-204.893 0l19.071-23.525h201.429l-23.53 23.525z"/><path data-name="Union 50" d="M185.548 585.364l-23.525-23.525h201.425l19.071 23.525zm-31.573 0l-23.53-23.525h23.656l23.524 23.525zm-32.247 0l-23.52-23.525h23.651l23.524 23.525zm-32.237 0l-23.525-23.525h23.652l23.523 23.525z"/><path data-name="Union 49" d="M1083.299 467.97v-16.118l-16.031 16.031v16.122zm0-21.976v-16.119l-16.031 16.036v16.118zm0-21.973v-16.116l-16.031 16.029v16.123zm0-21.522V281.251h-16.031v137.283zm0-121.248V159.995l-16.031-16.032v137.288zm0-142.774l-16.031-16.031v16.119l16.031 16.04zm0-21.972l-16.031-16.035v16.118l16.031 16.035zm0-21.977l-16.031-16.031v16.118l16.031 16.031z"/></g><g transform="translate(18.886 16.105)" fill="none" stroke="#231fb1" stroke-width="5"><rect width="1049.202" height="526.093" rx="12" stroke="none"/><rect x="2.5" y="2.5" width="1044.202" height="521.093" rx="9.5"/></g></g></g></g></g><path data-name="Union 76" d="M542.1 582.966H396.075l-27.418-29.611H62.3L1.5 500.056V53.525L57.527 1.5h970.345l56.028 52.025v446.531l-60.8 53.3H716.742l-27.418 29.611z" fill="none" stroke="#231fb1" stroke-width="3"/><text data-name="atom boyz" transform="translate(471.942 570.392)" fill="#231fb1" font-size="20" font-family="Poppins-ExtraBoldItalic, Poppins" font-weight="800" font-style="italic" letter-spacing=".062em"><tspan x="0" y="0">ATOM BOYZ</tspan></text></g></svg>