<svg xmlns="http://www.w3.org/2000/svg" width="354.338" height="373.998"><g data-name="Group 4362"><g data-name="Group 2706"><g data-name="Group 2643"><g data-name="Group 2642" fill="none" stroke="#d4d3d2"><path data-name="Path 984" d="M13.353 13.019l-.851 1.636v345.326l.85 1.634h328.967l.85-1.634V14.655l-.85-1.636z" stroke-miterlimit="10"/><g transform="translate(6.003 6.658)" stroke-width="3"><rect width="343.609" height="361.458" rx="5" stroke="none"/><rect x="1.5" y="1.5" width="340.609" height="358.458" rx="3.5"/></g></g></g></g><path data-name="Union 55" d="M227.578 2.665h-4.34l4.316 4.316h4.341zm-5.917 0h-4.34l4.317 4.316h4.34zm-5.916 0h-4.34l4.316 4.316h4.341zm-5.795 0h-32.645v4.316h36.962zm-32.645 0h-32.648l-4.316 4.316h36.964zm-38.441 0l-4.316 4.316h4.34l4.317-4.316zm-5.916 0l-4.317 4.316h4.34l4.317-4.316zm-5.917 0l-4.316 4.316h4.34l4.316-4.316z" fill="#d4d3d2" stroke="rgba(0,0,0,0)" stroke-miterlimit="10"/><path data-name="Union 58" d="M227.577 372.433h-4.339l4.316-4.316h4.341zm-5.917 0h-4.34l4.317-4.316h4.34zm-5.915 0h-4.34l4.316-4.316h4.341zm-5.795 0h-32.645v-4.316h36.962zm-32.645 0h-32.647l-4.316-4.316h36.963zm-38.441 0l-4.316-4.316h4.34l4.317 4.316zm-5.916 0l-4.317-4.316h4.34l4.317 4.316zm-5.917 0l-4.316-4.316h4.34l4.316 4.316z" fill="#d4d3d2" stroke="rgba(0,0,0,0)" stroke-miterlimit="10"/><path data-name="Union 57" d="M21.002 372.999l-20-22v-328l20-22h313.336l19 21.664-.662 164.335.662 164.335-19 21.664z" fill="none" stroke="#d4d3d2" stroke-width="2"/></g></svg>