<svg xmlns="http://www.w3.org/2000/svg" xmlns:xlink="http://www.w3.org/1999/xlink" width="1085.399" height="591.36" viewBox="0 0 1085.399 591.36">
  <defs>
    <clipPath id="clip-path">
      <rect id="Rectangle_1097" data-name="Rectangle 1097" width="1082.399" height="589.86" fill="none"/>
    </clipPath>
  </defs>
  <g id="Group_4360" data-name="Group 4360" transform="translate(13441.9 16294.424)">
    <g id="Group_4324" data-name="Group 4324" transform="translate(-13441 -16292.924)">
      <g id="Group_2368" data-name="Group 2368" transform="translate(0 0)">
        <g id="Group_2366" data-name="Group 2366">
          <g id="Group_2361" data-name="Group 2361">
            <g id="Group_2343" data-name="Group 2343">
              <path id="Union_47" data-name="Union 47" d="M202.757,16.038H65.467L81.5,0H324l16.039,16.033Zm186.629,0L373.353,0h16.123L405.51,16.033Zm-21.974,0L351.378,0H367.5l16.033,16.033Zm-21.975,0L329.4,0h16.117L361.56,16.033Zm-301.49,0L59.981,0H76.1L60.071,16.033Zm-21.975,0L38.008,0H54.125L38.092,16.033ZM0,16.033,16.033,0H32.151L16.117,16.033Z" transform="translate(338.446 1.601)" fill="#231fb1" stroke="rgba(0,0,0,0)" stroke-miterlimit="10" stroke-width="1"/>
              <path id="Union_48" data-name="Union 48" d="M0,389.473V373.355l16.031,16.031v16.122ZM0,367.5V351.378l16.031,16.035v16.119Zm0-21.972V329.406l16.031,16.031V361.56ZM0,324V202.755H16.031V340.038ZM0,202.755V81.5L16.031,65.466V202.755ZM0,59.98,16.031,43.949V60.068L0,76.1ZM0,38.008,16.031,21.972V38.091L0,54.126ZM0,16.031,16.031,0V16.119L0,32.149Z" transform="translate(0.74 76.997)" fill="#231fb1" stroke="rgba(0,0,0,0)" stroke-miterlimit="10" stroke-width="1"/>
              <path id="Union_51" data-name="Union 51" d="M269.377,23.525,292.9,0h23.652L293.027,23.525Zm-32.242,0L260.659,0H284.31L260.785,23.525Zm-32.242,0L228.417,0h23.652L228.543,23.525ZM0,23.525,19.071,0H220.5L196.97,23.525Z" transform="translate(700.036 560.339)" fill="#231fb1" stroke="rgba(0,0,0,0)" stroke-miterlimit="10" stroke-width="1"/>
              <path id="Union_50" data-name="Union 50" d="M119.582,23.525,96.057,0H297.482l19.071,23.525Zm-31.573,0L64.479,0H88.135l23.524,23.525Zm-32.247,0L32.242,0H55.893L79.417,23.525Zm-32.237,0L0,0H23.652L47.175,23.525Z" transform="translate(65.066 560.339)" fill="#231fb1" stroke="rgba(0,0,0,0)" stroke-miterlimit="10" stroke-width="1"/>
              <path id="Union_49" data-name="Union 49" d="M0,16.035V32.153L16.031,16.122V0ZM0,38.011V54.13L16.031,38.094V21.976ZM0,59.984V76.1L16.031,60.071V43.948ZM0,81.506V202.754H16.031V65.471ZM0,202.754V324.01l16.031,16.032V202.754ZM0,345.528l16.031,16.031V345.44L0,329.4ZM0,367.5l16.031,16.035V367.417L0,351.382Zm0,21.977,16.031,16.031V389.39L0,373.359Z" transform="translate(1082.399 482.505) rotate(180)" fill="#231fb1" stroke="rgba(0,0,0,0)" stroke-miterlimit="10" stroke-width="1"/>
            </g>
            <g id="d6501216" transform="translate(17.986 14.605)" fill="none" stroke="#231fb1" stroke-width="5">
              <rect width="1049.202" height="526.093" rx="12" stroke="none"/>
              <rect x="2.5" y="2.5" width="1044.202" height="521.093" rx="9.5" fill="none"/>
            </g>
          </g>
        </g>
      </g>
    </g>
    <path id="Union_76" data-name="Union 76" d="M540.6,581.466H394.575l-27.418-29.611H60.8L0,498.556V52.025L56.027,0h970.345L1082.4,52.025V498.556l-60.8,53.3H715.242l-27.418,29.611Z" transform="translate(-13440.4 -16292.924)" fill="none" stroke="#231fb1" stroke-width="3"/>
    <text id="atom_boyz" data-name="atom boyz" transform="translate(-12969.958 -15724.032)" fill="#231fb1" font-size="20" font-family="Poppins-ExtraBoldItalic, Poppins" font-weight="800" font-style="italic" letter-spacing="0.062em"><tspan x="0" y="0">ATOM BOYZ</tspan></text>
  </g>
</svg>
