<svg xmlns="http://www.w3.org/2000/svg" width="1093.51" height="711.642"><g data-name="Group 4363"><g data-name="Group 2706"><g data-name="Group 2643"><g data-name="Group 2642"><g data-name="Group 2343"><g data-name="Group 2274"><g data-name="Group 4364"><path data-name="Path 942" d="M1032.114 710.142H61.4L1.5 642.508V69.134L61.4 1.5h970.718l59.9 67.634v573.374z" fill="none" stroke="#d4d3d2" stroke-linecap="round" stroke-linejoin="round" stroke-width="3"/></g></g><path data-name="Union 48" d="M1.372 201.243v13.441l13.369-13.369V187.87zm0 18.327v13.443l13.369-13.373v-13.443zm0 18.324v13.443l13.369-13.367v-13.449zm0 17.95V356.96h13.369V242.47zm0 101.116v101.124l13.369 13.37V356.96zm0 119.069l13.369 13.369v-13.442L1.372 462.583zm0 18.324l13.369 13.373v-13.442L1.372 480.911zm0 18.328l13.369 13.369v-13.442L1.372 499.239z" fill="#d4d3d2" stroke="rgba(0,0,0,0)" stroke-miterlimit="10"/><path data-name="Union 49" d="M1092.139 203.59v13.442l-13.369-13.369v-13.445zm0 18.328v13.442l-13.369-13.373v-13.442zm0 18.324v13.442l-13.369-13.369v-13.446zm0 17.949v101.116h-13.369V244.818zm0 101.116v101.124l-13.369 13.367V359.307zm0 119.07l-13.369 13.369v-13.443l13.369-13.373zm0 18.321l-13.369 13.376v-13.443l13.369-13.373zm0 18.331l-13.369 13.369v-13.442l13.369-13.37z" fill="#d4d3d2" stroke="rgba(0,0,0,0)" stroke-miterlimit="10"/></g><path data-name="Path 984" d="M30.782 34.704l-2.669 3.045v642.85l2.668 3.042H1062.73l2.668-3.042V37.75l-2.668-3.045z" fill="none" stroke="#d4d3d2" stroke-miterlimit="10" stroke-width="3"/><g transform="translate(15.755 15)" fill="none" stroke="#d4d3d2" stroke-width="5"><rect width="1064.313" height="683.653" rx="12" stroke="none"/><rect x="2.5" y="2.5" width="1059.313" height="678.653" rx="9.5"/></g></g></g></g><path data-name="Union 55" d="M702.563 2.631h-13.441L702.491 16h13.445zm-18.327 0h-13.443L684.166 16h13.443zm-18.324 0h-13.443L665.836 16h13.449zm-17.95 0H546.846V16h114.49zm-101.116 0H445.722L432.352 16h114.494zm-119.069 0L414.408 16h13.442l13.373-13.369zm-18.324 0L396.08 16h13.442l13.373-13.369zm-18.328 0L377.756 16h13.442l13.369-13.369z" fill="#d4d3d2" stroke="rgba(0,0,0,0)" stroke-miterlimit="10"/><path data-name="Union 56" d="M702.563 711h-13.442l13.369-13.369h13.445zm-18.328 0h-13.442l13.373-13.369h13.442zm-18.324 0h-13.442l13.369-13.369h13.446zm-17.949 0H546.846v-13.369h114.489zm-101.116 0H445.722l-13.367-13.369h114.491zm-119.07 0l-13.369-13.369h13.443L441.223 711zm-18.321 0l-13.376-13.369h13.443L422.895 711zm-18.331 0l-13.369-13.369h13.442L404.567 711z" fill="#d4d3d2" stroke="rgba(0,0,0,0)" stroke-miterlimit="10"/></g></svg>