<svg xmlns="http://www.w3.org/2000/svg" xmlns:xlink="http://www.w3.org/1999/xlink" width="1085.397" height="591.361" viewBox="0 0 1085.397 591.361">
  <defs>
    <clipPath id="clip-path">
      <rect id="Rectangle_1097" data-name="Rectangle 1097" width="1082.399" height="589.86" fill="none"/>
    </clipPath>
  </defs>
  <g id="Group_4509" data-name="Group 4509" transform="translate(-98.1 -1262.499)">
    <g id="Group_2366" data-name="Group 2366" transform="translate(99 1264)">
      <g id="Group_2361" data-name="Group 2361">
        <g id="Group_2343" data-name="Group 2343">
          <path id="Union_47" data-name="Union 47" d="M202.757,16.038H65.467L81.5,0H324l16.039,16.033Zm186.629,0L373.353,0h16.123L405.51,16.033Zm-21.974,0L351.378,0H367.5l16.033,16.033Zm-21.975,0L329.4,0h16.117L361.56,16.033Zm-301.49,0L59.981,0H76.1L60.071,16.033Zm-21.975,0L38.008,0H54.125L38.092,16.033ZM0,16.033,16.033,0H32.151L16.117,16.033Z" transform="translate(338.446 1.601)" fill="#231fb1" stroke="rgba(0,0,0,0)" stroke-miterlimit="10" stroke-width="1"/>
          <path id="Union_48" data-name="Union 48" d="M0,389.473V373.355l16.031,16.031v16.122ZM0,367.5V351.378l16.031,16.035v16.119Zm0-21.972V329.406l16.031,16.031V361.56ZM0,324V202.755H16.031V340.038ZM0,202.755V81.5L16.031,65.466V202.755ZM0,59.98,16.031,43.949V60.068L0,76.1ZM0,38.008,16.031,21.972V38.091L0,54.126ZM0,16.031,16.031,0V16.119L0,32.149Z" transform="translate(0.74 76.997)" fill="#231fb1" stroke="rgba(0,0,0,0)" stroke-miterlimit="10" stroke-width="1"/>
          <path id="Union_51" data-name="Union 51" d="M269.377,23.525,292.9,0h23.652L293.027,23.525Zm-32.242,0L260.659,0H284.31L260.785,23.525Zm-32.242,0L228.417,0h23.652L228.543,23.525ZM0,23.525,19.071,0H220.5L196.97,23.525Z" transform="translate(700.036 560.339)" fill="#231fb1" stroke="rgba(0,0,0,0)" stroke-miterlimit="10" stroke-width="1"/>
          <path id="Union_50" data-name="Union 50" d="M119.582,23.525,96.057,0H297.482l19.071,23.525Zm-31.573,0L64.479,0H88.135l23.524,23.525Zm-32.247,0L32.242,0H55.893L79.417,23.525Zm-32.237,0L0,0H23.652L47.175,23.525Z" transform="translate(65.066 560.339)" fill="#231fb1" stroke="rgba(0,0,0,0)" stroke-miterlimit="10" stroke-width="1"/>
          <path id="Union_49" data-name="Union 49" d="M0,16.035V32.153L16.031,16.122V0ZM0,38.011V54.13L16.031,38.094V21.976ZM0,59.984V76.1L16.031,60.071V43.948ZM0,81.506V202.754H16.031V65.471ZM0,202.754V324.01l16.031,16.032V202.754ZM0,345.528l16.031,16.031V345.44L0,329.4ZM0,367.5l16.031,16.035V367.417L0,351.382Zm0,21.977,16.031,16.031V389.39L0,373.359Z" transform="translate(1082.399 482.505) rotate(180)" fill="#231fb1" stroke="rgba(0,0,0,0)" stroke-miterlimit="10" stroke-width="1"/>
        </g>
        <g id="d6501216" transform="translate(17.986 14.605)" fill="none" stroke="#231fb1" stroke-width="5">
          <rect width="1049.202" height="526.093" rx="12" stroke="none"/>
          <rect x="2.5" y="2.5" width="1044.202" height="521.093" rx="9.5" fill="none"/>
        </g>
      </g>
    </g>
    <path id="Path_1456" data-name="Path 1456" d="M-14066.205-16292.923h-485.767L-14608-16240.9v446.532l60.795,53.3h306.361l27.418,29.611h147.22" transform="translate(14707.599 17556.922)" fill="none" stroke="#231fb1" stroke-width="3"/>
    <path id="Path_1457" data-name="Path 1457" d="M-14608-16292.923h485.769l56.025,52.023v446.532l-60.795,53.3h-306.36l-27.418,29.611H-14608" transform="translate(15248.202 17556.922)" fill="none" stroke="#231fb1" stroke-width="3"/>
    <path id="Path_1472" data-name="Path 1472" d="M9.44-2.3h-5L3.28,0H-.84L6.78-14.1H11.3L13.94,0H9.8ZM8.98-5.28l-.7-4.58L5.96-5.28ZM29.56-14.1,29-10.98H25.26L23.32,0H19.38l1.94-10.98H17.6l.56-3.12ZM36.58.14A6.466,6.466,0,0,1,33.44-.6a5.172,5.172,0,0,1-2.1-2.08,6.266,6.266,0,0,1-.74-3.08,9.237,9.237,0,0,1,1.05-4.45,7.524,7.524,0,0,1,2.94-3.03,8.572,8.572,0,0,1,4.33-1.08,6.684,6.684,0,0,1,3.19.73,5.109,5.109,0,0,1,2.11,2.06,6.209,6.209,0,0,1,.74,3.07A9.183,9.183,0,0,1,43.9-4.02,7.692,7.692,0,0,1,40.94-.96,8.543,8.543,0,0,1,36.58.14Zm.6-3.64a3.531,3.531,0,0,0,2.07-.62,3.981,3.981,0,0,0,1.36-1.65A5.307,5.307,0,0,0,41.08-8a2.736,2.736,0,0,0-.69-1.99,2.621,2.621,0,0,0-1.97-.71,3.619,3.619,0,0,0-2.08.61,3.968,3.968,0,0,0-1.38,1.63,5.194,5.194,0,0,0-.48,2.24,2.756,2.756,0,0,0,.7,1.99A2.641,2.641,0,0,0,37.18-3.5ZM65.7-14.1,63.2,0H59.3l1.38-7.8L56.62,0H53.34L52.06-7.84,50.68,0H46.74l2.5-14.1h4.74l1.94,9.14,5.06-9.14Zm19.48,3.66a3.847,3.847,0,0,1-1.03,2.07,4.15,4.15,0,0,1-1.93,1.13,2.716,2.716,0,0,1,1.59.98,2.8,2.8,0,0,1,.57,1.76,3.8,3.8,0,0,1-.06.66A4.174,4.174,0,0,1,82.6-1.02,6.162,6.162,0,0,1,78.92,0H71.94l2.5-14.1H81.2a5,5,0,0,1,2.98.77,2.545,2.545,0,0,1,1.06,2.19A4.256,4.256,0,0,1,85.18-10.44Zm-4.14.72a1.656,1.656,0,0,0,.02-.3q0-.96-1.26-.96H77.82l-.44,2.5h1.98A1.47,1.47,0,0,0,81.04-9.72ZM80.42-4.4a1.51,1.51,0,0,0,.02-.28.938.938,0,0,0-.33-.77,1.5,1.5,0,0,0-.97-.27H76.88l-.44,2.58h2.28A1.5,1.5,0,0,0,80.42-4.4Zm13,4.54A6.466,6.466,0,0,1,90.28-.6a5.172,5.172,0,0,1-2.1-2.08,6.266,6.266,0,0,1-.74-3.08,9.237,9.237,0,0,1,1.05-4.45,7.524,7.524,0,0,1,2.94-3.03,8.572,8.572,0,0,1,4.33-1.08,6.684,6.684,0,0,1,3.19.73,5.109,5.109,0,0,1,2.11,2.06,6.209,6.209,0,0,1,.74,3.07,9.183,9.183,0,0,1-1.06,4.44A7.692,7.692,0,0,1,97.78-.96,8.543,8.543,0,0,1,93.42.14Zm.6-3.64a3.531,3.531,0,0,0,2.07-.62,3.981,3.981,0,0,0,1.36-1.65A5.307,5.307,0,0,0,97.92-8a2.736,2.736,0,0,0-.69-1.99,2.621,2.621,0,0,0-1.97-.71,3.619,3.619,0,0,0-2.08.61A3.968,3.968,0,0,0,91.8-8.46a5.194,5.194,0,0,0-.48,2.24,2.756,2.756,0,0,0,.7,1.99A2.641,2.641,0,0,0,94.02-3.5ZM118.9-14.1l-6.66,9.62L111.44,0h-3.92l.78-4.48-3.26-9.62h4.48l1.52,5.46,3.44-5.46Zm4.78,10.92h5.86L129,0H118.74l.52-2.98,7.2-7.96h-5.8l.56-3.16h10.26l-.52,2.98Z" transform="translate(570.042 1832.892)" fill="#231fb1"/>
  </g>
</svg>
