<svg xmlns="http://www.w3.org/2000/svg" width="843.293" height="56.714" viewBox="0 0 843.293 56.714">
  <g id="Group_4094" data-name="Group 4094" transform="translate(-260.015 -1923.119)">
    <g id="Group_4024" data-name="Group 4024" transform="translate(0 23.333)">
      <path id="Union_79" data-name="Union 79" d="M15492.652,10912.8l19.618-19.619H15532l-19.619,19.619Zm-26.889,0,19.618-19.619h19.725l-19.619,19.619Zm-26.889,0,19.618-19.619h19.725l-19.619,19.619Zm-170.874,0,15.9-19.619h167.981l-19.619,19.619Z" transform="translate(-14452.194 -8968.104)" fill="#231fb1" stroke="rgba(0,0,0,0)" stroke-miterlimit="10" stroke-width="1"/>
      <path id="Union_80" data-name="Union 80" d="M15367.729,10912.8l-19.619-19.619h167.981l15.9,19.619Zm-26.331,0-19.623-19.619h19.729l19.618,19.619Zm-26.893,0-19.615-19.619h19.725l19.618,19.619Zm-26.885,0-19.619-19.619h19.725l19.618,19.619Z" transform="translate(-14981.738 -8968.104)" fill="#231fb1" stroke="rgba(0,0,0,0)" stroke-miterlimit="10" stroke-width="1"/>
      <text id="atom_boyz" data-name="atom boyz" transform="translate(611 1941.333)" fill="#231fb1" font-size="22" font-family="Poppins-ExtraBoldItalic, Poppins" font-weight="800" font-style="italic" letter-spacing="0.062em"><tspan x="0" y="0">ATOM BOYZ</tspan></text>
    </g>
    <path id="Path_1398" data-name="Path 1398" d="M2112.25,1914.167,2095,1931.333H1840L1809,1968H1577l-28-36.667H1291l-20-17.416" transform="translate(-1010 10.333)" fill="none" stroke="#231fb1" stroke-width="3"/>
  </g>
</svg>
