<svg xmlns="http://www.w3.org/2000/svg" width="584.17" height="173.455"><defs><linearGradient id="a" x1=".5" x2=".5" y2="1" gradientUnits="objectBoundingBox"><stop offset="0" stop-color="#dad9f6"/><stop offset="1" stop-color="#dad9f6" stop-opacity=".4"/></linearGradient></defs><g data-name="Group 1936"><g data-name="Group 648" opacity=".9"><path data-name="Path 556" d="M0 0h234.434l-14.987 135.317H16.057z" transform="translate(177.163 37.823)" fill="url(#a)"/><path data-name="Path 557" d="M221.762 0h145.587l44.246 37.823H177.162z" fill="#f3f2ff" opacity=".64"/><path data-name="Path 554" d="M-6.29-5.194l179.366 8.669-19.269 61.752-167.813.056z" transform="translate(410.689 107.926)" fill="url(#a)"/><path data-name="Path 552" d="M-.333-7.6l181.981-7.071 11.212 95.136H36.109z" transform="translate(.333 92.99)" fill="url(#a)"/><path data-name="Path 553" d="M61.199 49.316H178.47l3.5 29.008-181.4 7z" fill="#f3f2ff" opacity=".64"/><path data-name="Path 555" d="M407.719 71.076l118.774 4.265 57.676 36.185-179.7-8.7z" fill="#f3f2ff" opacity=".64"/></g><path data-name="Path 994" d="M267.613 89.359v-6.6q9.331-.909 13.016-3.039t5.5-10.073h6.795v68.233h-9.19V89.359z" fill="#e4e2f8" opacity=".89"/><path data-name="Path 995" d="M86.613 149.595a24.89 24.89 0 011.261-9.782q1.543-4.27 6.912-8.192l5.343-3.89a26.938 26.938 0 004.964-4.359 7.836 7.836 0 001.835-5.887 7.904 7.904 0 00-2.844-5.65 8.147 8.147 0 00-6.157-1.553q-5.482.578-7.149 4.95a14.937 14.937 0 00-.593 6.3l-5.423.572a19.155 19.155 0 011.086-9.257q2.817-6.535 11.588-7.46 7.29-.77 11.07 2.816a13.26 13.26 0 014.29 8.417 11.991 11.991 0 01-2.663 9.092 35.303 35.303 0 01-6.9 5.882l-3.822 2.686a26.445 26.445 0 00-4.241 3.534 11.18 11.18 0 00-3.131 6.115l23.175-2.446.532 5.038z" fill="#e4e2f8" opacity=".89"/><path data-name="Path 996" d="M477.916 158.458q-6.14-.863-8.438-4.625a12.639 12.639 0 01-1.62-8.598l4.546.639a11.384 11.384 0 00.571 5.06q1.309 2.97 5.733 3.592a8.1 8.1 0 005.779-1.06 6.093 6.093 0 002.745-4.447q.503-3.578-1.484-5.312a11.18 11.18 0 00-5.88-2.28q-.434-.062-.883-.113t-.913-.09l.54-3.846q.668.168 1.123.259t.987.163a9.174 9.174 0 004.122-.21 4.964 4.964 0 003.435-4.448 4.768 4.768 0 00-1.276-4.247 6.923 6.923 0 00-4.082-2.003q-4.352-.612-6.428 2.055a10.155 10.155 0 00-1.678 4.4l-4.305-.606a13.187 13.187 0 012.472-6.359q3.34-4.461 10.036-3.52 5.295.744 7.864 3.509a8.37 8.37 0 011.941 7.24 7.7 7.7 0 01-2.443 4.933 7.281 7.281 0 01-3.028 1.547 7.586 7.586 0 013.861 3.488 8.828 8.828 0 01.8 5.45 10.773 10.773 0 01-4.403 7.616q-3.698 2.656-9.694 1.813z" fill="#e4e2f8" opacity=".89"/></g></svg>