<svg xmlns="http://www.w3.org/2000/svg" xmlns:xlink="http://www.w3.org/1999/xlink" width="584.17" height="173.455" viewBox="0 0 584.17 173.455">
  <defs>
    <linearGradient id="linear-gradient" x1="0.5" x2="0.5" y2="1" gradientUnits="objectBoundingBox">
      <stop offset="0" stop-color="#dad9f6"/>
      <stop offset="1" stop-color="#dad9f6" stop-opacity="0.4"/>
    </linearGradient>
  </defs>
  <g id="Group_1936" data-name="Group 1936" transform="translate(-335.03 -3103.677)">
    <g id="Group_648" data-name="Group 648" transform="translate(335.029 3072)" opacity="0.9">
      <path id="Path_556" data-name="Path 556" d="M0,0H234.434L219.447,135.317H16.057Z" transform="translate(177.164 69.5)" fill="url(#linear-gradient)"/>
      <path id="Path_557" data-name="Path 557" d="M44.6,8.333H190.187l44.246,37.823H0Z" transform="translate(177.163 23.344)" fill="#f3f2ff" opacity="0.64"/>
      <path id="Path_554" data-name="Path 554" d="M-6.29-5.194,173.076,3.475,153.807,65.227l-167.813.056Z" transform="translate(410.69 139.603)" fill="url(#linear-gradient)"/>
      <path id="Path_552" data-name="Path 552" d="M-.333-7.6l181.981-7.071L192.86,80.465H36.109Z" transform="translate(0.334 124.667)" fill="url(#linear-gradient)"/>
      <path id="Path_553" data-name="Path 553" d="M61.2,6.76H178.471l3.5,29.008-181.4,7Z" transform="translate(0 74.233)" fill="#f3f2ff" opacity="0.64"/>
      <path id="Path_555" data-name="Path 555" d="M-2.892,10.1l118.774,4.265,57.676,36.185-179.7-8.7Z" transform="translate(410.612 92.653)" fill="#f3f2ff" opacity="0.64"/>
    </g>
    <path id="Path_994" data-name="Path 994" d="M9.379-48.521v-6.6q9.331-.909,13.016-3.039t5.5-10.073h6.795V0H25.5V-48.521Z" transform="translate(593.264 3241.557)" fill="#e4e2f8" opacity="0.89"/>
    <path id="Path_995" data-name="Path 995" d="M1.906,0A24.876,24.876,0,0,1,4.185-9.591q1.981-4.081,7.729-7.417l5.719-3.306a26.924,26.924,0,0,0,5.391-3.812,7.832,7.832,0,0,0,2.442-5.659A7.9,7.9,0,0,0,23.232-35.7a8.143,8.143,0,0,0-5.957-2.189q-5.51,0-7.625,4.17a14.929,14.929,0,0,0-1.251,6.2H2.949A19.145,19.145,0,0,1,5-36.606q3.485-6.2,12.3-6.2,7.327,0,10.708,3.961a13.253,13.253,0,0,1,3.381,8.816,11.985,11.985,0,0,1-3.6,8.757,35.284,35.284,0,0,1-7.476,5.123L16.233-13.88a26.431,26.431,0,0,0-4.587,3.068A11.175,11.175,0,0,0,7.893-5.063H31.185V0Z" transform="matrix(0.995, -0.105, 0.105, 0.995, 419.747, 3253.472)" fill="#e4e2f8" opacity="0.89"/>
    <path id="Path_996" data-name="Path 996" d="M12.988.952q-6.2,0-9-3.406a12.639,12.639,0,0,1-2.8-8.289h4.59a11.384,11.384,0,0,0,1.27,4.932q1.709,2.759,6.177,2.759A8.1,8.1,0,0,0,18.8-4.907a6.093,6.093,0,0,0,2.1-4.785q0-3.613-2.209-5.054a11.18,11.18,0,0,0-6.14-1.44q-.439,0-.891.012t-.916.037V-20.02q.684.073,1.147.1t1,.024a9.174,9.174,0,0,0,4.053-.781,4.964,4.964,0,0,0,2.783-4.883,4.768,4.768,0,0,0-1.855-4.028,6.923,6.923,0,0,0-4.321-1.416q-4.395,0-6.079,2.93a10.155,10.155,0,0,0-1.05,4.59H2.075a13.187,13.187,0,0,1,1.563-6.641q2.686-4.883,9.448-4.883,5.347,0,8.276,2.38a8.37,8.37,0,0,1,2.93,6.9,7.7,7.7,0,0,1-1.733,5.225,7.281,7.281,0,0,1-2.783,1.953,7.586,7.586,0,0,1,4.309,2.917,8.828,8.828,0,0,1,1.55,5.286,10.773,10.773,0,0,1-3.3,8.154Q19.043.952,12.988.952Z" transform="translate(800.217 3259.385) rotate(8)" fill="#e4e2f8" opacity="0.89"/>
  </g>
</svg>
